G04*
G04 #@! TF.GenerationSoftware,Altium Limited,Altium Designer,22.7.1 (60)*
G04*
G04 Layer_Physical_Order=1*
G04 Layer_Color=16776960*
%FSLAX43Y43*%
%MOMM*%
G71*
G04*
G04 #@! TF.SameCoordinates,6C714445-BF0D-44DC-86B3-87104CAD25D8*
G04*
G04*
G04 #@! TF.FilePolarity,Positive*
G04*
G01*
G75*
%ADD13C,0.300*%
%ADD36C,1.000*%
%ADD37C,0.500*%
%ADD38C,0.750*%
%ADD39C,1.200*%
%ADD40C,0.400*%
G04:AMPARAMS|DCode=41|XSize=1.21mm|YSize=1.46mm|CornerRadius=0.151mm|HoleSize=0mm|Usage=FLASHONLY|Rotation=90.000|XOffset=0mm|YOffset=0mm|HoleType=Round|Shape=RoundedRectangle|*
%AMROUNDEDRECTD41*
21,1,1.210,1.158,0,0,90.0*
21,1,0.907,1.460,0,0,90.0*
1,1,0.303,0.579,0.454*
1,1,0.303,0.579,-0.454*
1,1,0.303,-0.579,-0.454*
1,1,0.303,-0.579,0.454*
%
%ADD41ROUNDEDRECTD41*%
G04:AMPARAMS|DCode=42|XSize=2.5mm|YSize=8mm|CornerRadius=0.313mm|HoleSize=0mm|Usage=FLASHONLY|Rotation=270.000|XOffset=0mm|YOffset=0mm|HoleType=Round|Shape=RoundedRectangle|*
%AMROUNDEDRECTD42*
21,1,2.500,7.375,0,0,270.0*
21,1,1.875,8.000,0,0,270.0*
1,1,0.625,-3.688,-0.938*
1,1,0.625,-3.688,0.938*
1,1,0.625,3.688,0.938*
1,1,0.625,3.688,-0.938*
%
%ADD42ROUNDEDRECTD42*%
G04:AMPARAMS|DCode=43|XSize=0.61mm|YSize=0.6mm|CornerRadius=0.075mm|HoleSize=0mm|Usage=FLASHONLY|Rotation=180.000|XOffset=0mm|YOffset=0mm|HoleType=Round|Shape=RoundedRectangle|*
%AMROUNDEDRECTD43*
21,1,0.610,0.450,0,0,180.0*
21,1,0.460,0.600,0,0,180.0*
1,1,0.150,-0.230,0.225*
1,1,0.150,0.230,0.225*
1,1,0.150,0.230,-0.225*
1,1,0.150,-0.230,-0.225*
%
%ADD43ROUNDEDRECTD43*%
G04:AMPARAMS|DCode=44|XSize=0.94mm|YSize=1.03mm|CornerRadius=0.118mm|HoleSize=0mm|Usage=FLASHONLY|Rotation=0.000|XOffset=0mm|YOffset=0mm|HoleType=Round|Shape=RoundedRectangle|*
%AMROUNDEDRECTD44*
21,1,0.940,0.795,0,0,0.0*
21,1,0.705,1.030,0,0,0.0*
1,1,0.235,0.353,-0.398*
1,1,0.235,-0.353,-0.398*
1,1,0.235,-0.353,0.398*
1,1,0.235,0.353,0.398*
%
%ADD44ROUNDEDRECTD44*%
G04:AMPARAMS|DCode=45|XSize=0.59mm|YSize=0.6mm|CornerRadius=0.074mm|HoleSize=0mm|Usage=FLASHONLY|Rotation=0.000|XOffset=0mm|YOffset=0mm|HoleType=Round|Shape=RoundedRectangle|*
%AMROUNDEDRECTD45*
21,1,0.590,0.453,0,0,0.0*
21,1,0.443,0.600,0,0,0.0*
1,1,0.148,0.221,-0.226*
1,1,0.148,-0.221,-0.226*
1,1,0.148,-0.221,0.226*
1,1,0.148,0.221,0.226*
%
%ADD45ROUNDEDRECTD45*%
G04:AMPARAMS|DCode=46|XSize=0.92mm|YSize=1.08mm|CornerRadius=0.115mm|HoleSize=0mm|Usage=FLASHONLY|Rotation=90.000|XOffset=0mm|YOffset=0mm|HoleType=Round|Shape=RoundedRectangle|*
%AMROUNDEDRECTD46*
21,1,0.920,0.850,0,0,90.0*
21,1,0.690,1.080,0,0,90.0*
1,1,0.230,0.425,0.345*
1,1,0.230,0.425,-0.345*
1,1,0.230,-0.425,-0.345*
1,1,0.230,-0.425,0.345*
%
%ADD46ROUNDEDRECTD46*%
G04:AMPARAMS|DCode=47|XSize=0.65mm|YSize=1.31mm|CornerRadius=0.081mm|HoleSize=0mm|Usage=FLASHONLY|Rotation=180.000|XOffset=0mm|YOffset=0mm|HoleType=Round|Shape=RoundedRectangle|*
%AMROUNDEDRECTD47*
21,1,0.650,1.148,0,0,180.0*
21,1,0.488,1.310,0,0,180.0*
1,1,0.163,-0.244,0.574*
1,1,0.163,0.244,0.574*
1,1,0.163,0.244,-0.574*
1,1,0.163,-0.244,-0.574*
%
%ADD47ROUNDEDRECTD47*%
G04:AMPARAMS|DCode=48|XSize=0.61mm|YSize=0.6mm|CornerRadius=0.075mm|HoleSize=0mm|Usage=FLASHONLY|Rotation=270.000|XOffset=0mm|YOffset=0mm|HoleType=Round|Shape=RoundedRectangle|*
%AMROUNDEDRECTD48*
21,1,0.610,0.450,0,0,270.0*
21,1,0.460,0.600,0,0,270.0*
1,1,0.150,-0.225,-0.230*
1,1,0.150,-0.225,0.230*
1,1,0.150,0.225,0.230*
1,1,0.150,0.225,-0.230*
%
%ADD48ROUNDEDRECTD48*%
G04:AMPARAMS|DCode=49|XSize=0.94mm|YSize=1.03mm|CornerRadius=0.118mm|HoleSize=0mm|Usage=FLASHONLY|Rotation=90.000|XOffset=0mm|YOffset=0mm|HoleType=Round|Shape=RoundedRectangle|*
%AMROUNDEDRECTD49*
21,1,0.940,0.795,0,0,90.0*
21,1,0.705,1.030,0,0,90.0*
1,1,0.235,0.398,0.353*
1,1,0.235,0.398,-0.353*
1,1,0.235,-0.398,-0.353*
1,1,0.235,-0.398,0.353*
%
%ADD49ROUNDEDRECTD49*%
G04:AMPARAMS|DCode=50|XSize=2.5mm|YSize=8mm|CornerRadius=0.313mm|HoleSize=0mm|Usage=FLASHONLY|Rotation=180.000|XOffset=0mm|YOffset=0mm|HoleType=Round|Shape=RoundedRectangle|*
%AMROUNDEDRECTD50*
21,1,2.500,7.375,0,0,180.0*
21,1,1.875,8.000,0,0,180.0*
1,1,0.625,-0.938,3.688*
1,1,0.625,0.938,3.688*
1,1,0.625,0.938,-3.688*
1,1,0.625,-0.938,-3.688*
%
%ADD50ROUNDEDRECTD50*%
G04:AMPARAMS|DCode=51|XSize=1.28mm|YSize=1.87mm|CornerRadius=0.16mm|HoleSize=0mm|Usage=FLASHONLY|Rotation=90.000|XOffset=0mm|YOffset=0mm|HoleType=Round|Shape=RoundedRectangle|*
%AMROUNDEDRECTD51*
21,1,1.280,1.550,0,0,90.0*
21,1,0.960,1.870,0,0,90.0*
1,1,0.320,0.775,0.480*
1,1,0.320,0.775,-0.480*
1,1,0.320,-0.775,-0.480*
1,1,0.320,-0.775,0.480*
%
%ADD51ROUNDEDRECTD51*%
G04:AMPARAMS|DCode=52|XSize=1.76mm|YSize=2.82mm|CornerRadius=0.22mm|HoleSize=0mm|Usage=FLASHONLY|Rotation=180.000|XOffset=0mm|YOffset=0mm|HoleType=Round|Shape=RoundedRectangle|*
%AMROUNDEDRECTD52*
21,1,1.760,2.380,0,0,180.0*
21,1,1.320,2.820,0,0,180.0*
1,1,0.440,-0.660,1.190*
1,1,0.440,0.660,1.190*
1,1,0.440,0.660,-1.190*
1,1,0.440,-0.660,-1.190*
%
%ADD52ROUNDEDRECTD52*%
%ADD53C,0.254*%
%ADD54C,2.000*%
%ADD55C,2.800*%
%ADD56C,12.000*%
%ADD57C,2.600*%
%ADD58C,2.100*%
%ADD59C,3.500*%
%ADD60C,3.000*%
%ADD61C,1.800*%
%ADD62C,1.000*%
%ADD63C,0.700*%
G36*
X52920Y125880D02*
Y125880D01*
X52921D01*
X53105Y125878D01*
X53439Y125812D01*
X53763Y125677D01*
X54055Y125483D01*
X54303Y125235D01*
X54497Y124943D01*
X54632Y124619D01*
X54700Y124275D01*
Y124100D01*
X54700Y118680D01*
X54700Y118680D01*
X54700Y118601D01*
X54669Y118447D01*
X54609Y118301D01*
X54521Y118170D01*
X54410Y118059D01*
X54279Y117971D01*
X54133Y117911D01*
X53979Y117880D01*
X53900Y117880D01*
X52260Y117880D01*
Y118980D01*
X50800D01*
X49340D01*
Y118021D01*
X49199Y117880D01*
X47900Y117880D01*
X47810Y117880D01*
X47634Y117915D01*
X47469Y117984D01*
X47319Y118083D01*
X47192Y118210D01*
X47093Y118359D01*
X47024Y118525D01*
X46989Y118701D01*
X46989Y118791D01*
Y123989D01*
X46989Y124175D01*
X47062Y124541D01*
X47204Y124885D01*
X47411Y125194D01*
X47675Y125458D01*
X47984Y125665D01*
X48328Y125807D01*
X48694Y125880D01*
X48880Y125880D01*
X52920Y125880D01*
X52920Y125880D01*
D02*
G37*
G36*
X37584Y124149D02*
X38094Y124048D01*
X38592Y123896D01*
X39074Y123697D01*
X39533Y123452D01*
X39966Y123162D01*
X40368Y122832D01*
X40552Y122648D01*
X46686Y116514D01*
X46686Y116514D01*
X46967Y116247D01*
X47566Y115755D01*
X48211Y115324D01*
X48895Y114959D01*
X49611Y114662D01*
X50353Y114437D01*
X51113Y114286D01*
X51885Y114210D01*
X52273Y114200D01*
X67173Y114200D01*
X67231Y114009D01*
X66964Y113829D01*
X66433Y113378D01*
X65956Y112870D01*
X65539Y112312D01*
X65187Y111712D01*
X64905Y111075D01*
X64695Y110411D01*
X64562Y109727D01*
X64505Y109033D01*
X64527Y108337D01*
X64626Y107648D01*
X64802Y106974D01*
X65053Y106325D01*
X65150Y106138D01*
X68798Y110486D01*
X70713Y108879D01*
X72320Y110794D01*
X76667Y107146D01*
X76731Y107346D01*
X76864Y108030D01*
X76921Y108724D01*
X76899Y109420D01*
X76800Y110109D01*
X76624Y110783D01*
X76373Y111433D01*
X76052Y112050D01*
X75663Y112628D01*
X75212Y113159D01*
X74705Y113636D01*
X74289Y113946D01*
X74367Y114138D01*
X74828Y114014D01*
X75270Y113831D01*
X75684Y113592D01*
X76063Y113301D01*
X76401Y112963D01*
X76692Y112584D01*
X76931Y112170D01*
X77114Y111728D01*
X77238Y111267D01*
X77300Y110793D01*
X77300Y110554D01*
X77300Y99200D01*
X77300Y85680D01*
X77300D01*
X77300Y85512D01*
X77234Y85182D01*
X77106Y84872D01*
X76919Y84592D01*
X76681Y84354D01*
X76402Y84168D01*
X76091Y84039D01*
X75762Y83973D01*
X75593Y83973D01*
X72872Y83973D01*
X72653D01*
X72217Y84016D01*
X71788Y84102D01*
X71369Y84229D01*
X70965Y84396D01*
X70579Y84602D01*
X70215Y84845D01*
X69877Y85123D01*
X68695Y86305D01*
X68771Y86490D01*
X69220D01*
Y87950D01*
Y89410D01*
X66533D01*
X66333Y89370D01*
X66163Y89257D01*
X66108Y89175D01*
X65870Y89130D01*
X56654Y98346D01*
X56654Y98346D01*
X56654Y98346D01*
X56652Y98348D01*
X56551Y98444D01*
X56512Y98476D01*
X56333Y98623D01*
X56097Y98781D01*
X55848Y98914D01*
X55586Y99022D01*
X55316Y99105D01*
X55038Y99160D01*
X54756Y99187D01*
X54615Y99191D01*
X45420Y99191D01*
X45266Y99391D01*
X45266Y99392D01*
Y100352D01*
X45238Y100492D01*
X45159Y100612D01*
X45124Y100635D01*
Y99872D01*
X43124D01*
Y100635D01*
X43089Y100612D01*
X43010Y100492D01*
X42982Y100352D01*
Y99392D01*
X42982Y99391D01*
X42828Y99191D01*
X42620D01*
X42466Y99391D01*
X42466Y99392D01*
Y100352D01*
X42438Y100492D01*
X42359Y100612D01*
X42324Y100635D01*
Y99872D01*
X40324D01*
Y100635D01*
X40289Y100612D01*
X40210Y100492D01*
X40182Y100352D01*
Y99392D01*
X40182Y99391D01*
X40028Y99191D01*
X38300D01*
Y100200D01*
X38300Y100200D01*
X38300Y100200D01*
X38300Y100279D01*
X38269Y100433D01*
X38209Y100579D01*
X38121Y100710D01*
X38010Y100821D01*
X37879Y100909D01*
X37733Y100969D01*
X37690Y100978D01*
X37665Y101010D01*
X37616Y101196D01*
X37620Y101200D01*
X35380D01*
X35380Y101200D01*
X35293Y101000D01*
X34207Y101000D01*
X34120Y101200D01*
X34120Y101200D01*
X31880D01*
X31880Y101200D01*
X31793Y101000D01*
X30707Y101000D01*
X30620Y101200D01*
X30620Y101200D01*
X28380D01*
X28384Y101196D01*
X28336Y101010D01*
X28310Y100978D01*
X28267Y100969D01*
X28121Y100909D01*
X27990Y100821D01*
X27879Y100710D01*
X27791Y100579D01*
X27731Y100433D01*
X27700Y100279D01*
X27700Y100200D01*
X27700Y99191D01*
X26020D01*
X25866Y99391D01*
X25866Y99392D01*
Y100352D01*
X25838Y100492D01*
X25759Y100612D01*
X25724Y100635D01*
Y99872D01*
X23724D01*
Y100635D01*
X23689Y100612D01*
X23610Y100492D01*
X23582Y100352D01*
Y99392D01*
X23582Y99391D01*
X23428Y99191D01*
X23220D01*
X23066Y99391D01*
X23066Y99392D01*
Y100352D01*
X23038Y100492D01*
X22959Y100612D01*
X22924Y100635D01*
Y99872D01*
X20924D01*
Y100635D01*
X20889Y100612D01*
X20810Y100492D01*
X20782Y100352D01*
Y99392D01*
X20782Y99391D01*
X20628Y99191D01*
X15743Y99191D01*
X15560Y99391D01*
Y101920D01*
X14100D01*
Y102920D01*
D01*
Y101920D01*
X12640D01*
Y99232D01*
X12606Y99191D01*
X12068D01*
X12068Y99191D01*
X11846Y99185D01*
X11403Y99142D01*
X10967Y99055D01*
X10541Y98926D01*
X10131Y98756D01*
X9738Y98546D01*
X9369Y98299D01*
X9025Y98017D01*
X8864Y97864D01*
X2527Y91527D01*
X2527Y91527D01*
X2374Y91366D01*
X2092Y91022D01*
X1845Y90653D01*
X1635Y90260D01*
X1465Y89850D01*
X1336Y89424D01*
X1249Y88988D01*
X1205Y88545D01*
X1200Y88323D01*
X1200Y88323D01*
X1200Y88081D01*
X1137Y87602D01*
X1012Y87135D01*
X827Y86688D01*
X585Y86270D01*
X291Y85886D01*
X-51Y85544D01*
X-435Y85250D01*
X-853Y85008D01*
X-1300Y84823D01*
X-1767Y84698D01*
X-2246Y84635D01*
X-2488Y84635D01*
X-9835Y84635D01*
X-10088Y84635D01*
X-10583Y84734D01*
X-11050Y84927D01*
X-11470Y85208D01*
X-11827Y85565D01*
X-12108Y85985D01*
X-12301Y86452D01*
X-12400Y86947D01*
Y87200D01*
X-12400Y104361D01*
X-12400Y104549D01*
X-12400Y104549D01*
X-12400Y104549D01*
X-12400Y105018D01*
X-12308Y105951D01*
X-12125Y106870D01*
X-11853Y107768D01*
X-11494Y108634D01*
X-11052Y109460D01*
X-10532Y110240D01*
X-9937Y110965D01*
X-9918Y110984D01*
X-9756Y110862D01*
X-9897Y110607D01*
X-10164Y109964D01*
X-10356Y109295D01*
X-10473Y108608D01*
X-10512Y107913D01*
X-10473Y107218D01*
X-10356Y106531D01*
X-10164Y105862D01*
X-10083Y105668D01*
X-6070Y109681D01*
X-2057Y113694D01*
X-2251Y113774D01*
X-2921Y113967D01*
X-3607Y114084D01*
X-4302Y114123D01*
X-4998Y114084D01*
X-5684Y113967D01*
X-6353Y113774D01*
X-6997Y113508D01*
X-7251Y113367D01*
X-7373Y113529D01*
X-2881Y118020D01*
X-2748Y118153D01*
X-2748Y118153D01*
X-2748Y118153D01*
X-2478Y118424D01*
X-1872Y118889D01*
X-1210Y119271D01*
X-504Y119563D01*
X235Y119761D01*
X992Y119861D01*
X1756Y119861D01*
X2514Y119761D01*
X3252Y119563D01*
X3958Y119271D01*
X4620Y118889D01*
X5227Y118424D01*
X5497Y118153D01*
X10800Y112850D01*
X10800Y112850D01*
X10800Y112850D01*
X11031Y112633D01*
X11534Y112248D01*
X12083Y111931D01*
X12668Y111688D01*
X13280Y111524D01*
X13908Y111442D01*
X14542Y111442D01*
X15170Y111524D01*
X15782Y111688D01*
X16367Y111931D01*
X16916Y112248D01*
X17419Y112633D01*
X17650Y112850D01*
X27884Y123084D01*
X27884Y123084D01*
X27884Y123084D01*
X28017Y123217D01*
X28306Y123454D01*
X28617Y123662D01*
X28947Y123838D01*
X29293Y123982D01*
X29651Y124090D01*
X30018Y124163D01*
X30118Y124173D01*
X30130Y124151D01*
X30342Y123892D01*
X30601Y123680D01*
X30750Y123600D01*
Y123373D01*
X30713Y123353D01*
X30484Y123166D01*
X30430Y123100D01*
X31550D01*
Y122100D01*
X32550D01*
Y120980D01*
X32616Y121034D01*
X32803Y121263D01*
X32943Y121523D01*
X32946Y121533D01*
X33155D01*
X33158Y121523D01*
X33297Y121263D01*
X33484Y121034D01*
X33550Y120980D01*
Y122100D01*
X34550D01*
Y123100D01*
X35670D01*
X35616Y123166D01*
X35387Y123353D01*
X35350Y123373D01*
Y123600D01*
X35499Y123680D01*
X35758Y123892D01*
X35970Y124151D01*
X35997Y124200D01*
X36805D01*
X36805Y124200D01*
X36805Y124200D01*
X37065Y124200D01*
X37584Y124149D01*
D02*
G37*
G36*
X16220Y123180D02*
Y123180D01*
X16221D01*
X16405Y123178D01*
X16739Y123112D01*
X17063Y122977D01*
X17355Y122783D01*
X17603Y122535D01*
X17797Y122243D01*
X17932Y121919D01*
X18000Y121575D01*
Y121400D01*
X18000Y115980D01*
X18000Y115980D01*
X18000Y115901D01*
X17969Y115747D01*
X17909Y115601D01*
X17821Y115470D01*
X17710Y115359D01*
X17579Y115271D01*
X17433Y115211D01*
X17279Y115180D01*
X17200Y115180D01*
X15560Y115180D01*
Y116280D01*
X14100D01*
X12640D01*
Y115321D01*
X12499Y115180D01*
X11200Y115180D01*
X11110Y115180D01*
X10934Y115215D01*
X10769Y115284D01*
X10619Y115383D01*
X10492Y115510D01*
X10393Y115659D01*
X10324Y115825D01*
X10289Y116001D01*
X10289Y116091D01*
Y121289D01*
X10289Y121475D01*
X10362Y121841D01*
X10504Y122185D01*
X10711Y122494D01*
X10975Y122758D01*
X11284Y122965D01*
X11628Y123107D01*
X11994Y123180D01*
X12180Y123180D01*
X16220Y123180D01*
X16220Y123180D01*
D02*
G37*
G36*
X53895Y97324D02*
X54305Y97221D01*
X54697Y97064D01*
X55064Y96856D01*
X55400Y96600D01*
X55549Y96451D01*
X55691Y96309D01*
X55602Y96116D01*
X54991Y96165D01*
X54295Y96143D01*
X53606Y96044D01*
X52932Y95868D01*
X52282Y95618D01*
X52096Y95520D01*
X56443Y91872D01*
X60791Y88224D01*
X60854Y88425D01*
X60988Y89108D01*
X61044Y89802D01*
X61022Y90498D01*
X60987Y90745D01*
X61166Y90834D01*
X69363Y82637D01*
X69363Y82637D01*
X69679Y82332D01*
X70340Y81752D01*
X71038Y81216D01*
X71769Y80727D01*
X72531Y80287D01*
X73320Y79898D01*
X74133Y79562D01*
X74966Y79279D01*
X75816Y79051D01*
X76679Y78880D01*
X77551Y78765D01*
X78429Y78707D01*
X78869Y78700D01*
X91600Y78700D01*
X91600Y78700D01*
X91600Y78700D01*
X91853Y78700D01*
X92349Y78601D01*
X92817Y78408D01*
X93237Y78127D01*
X93595Y77769D01*
X93876Y77348D01*
X94070Y76881D01*
X94168Y76385D01*
X94168Y76132D01*
X94168Y52568D01*
X94168Y52568D01*
Y52315D01*
X94070Y51819D01*
X93876Y51352D01*
X93595Y50931D01*
X93237Y50573D01*
X92817Y50292D01*
X92349Y50099D01*
X91853Y50000D01*
X91600D01*
X79790Y50000D01*
X79790Y50000D01*
X79578Y49995D01*
X79156Y49953D01*
X78740Y49870D01*
X78334Y49747D01*
X77942Y49585D01*
X77568Y49385D01*
X77216Y49150D01*
X76888Y48881D01*
X76734Y48734D01*
X72512Y44512D01*
X72512Y44512D01*
X72419Y44410D01*
X72266Y44180D01*
X72161Y43925D01*
X72107Y43655D01*
X72100Y43517D01*
X72100Y42600D01*
X72100D01*
X72112Y42483D01*
X72201Y42267D01*
X72367Y42101D01*
X72513Y42041D01*
X72561Y41860D01*
X72562Y41853D01*
X72557Y41816D01*
X72460Y41690D01*
X73460D01*
Y40190D01*
X72460D01*
X72569Y40049D01*
X72632Y40000D01*
X72564Y39800D01*
X72200D01*
X70147Y39800D01*
X70099Y39854D01*
X70019Y40000D01*
X70037Y40091D01*
Y40999D01*
X70010Y41136D01*
X69932Y41252D01*
X69850Y41307D01*
Y40545D01*
X68350D01*
Y41307D01*
X68268Y41252D01*
X68190Y41136D01*
X68163Y40999D01*
Y40091D01*
X68181Y40002D01*
X68013Y39887D01*
X66737Y41163D01*
X66737Y41163D01*
X66604Y41283D01*
X66595Y41290D01*
X66305Y41483D01*
X65973Y41621D01*
X65620Y41691D01*
X65440Y41700D01*
X63624Y41700D01*
X63624Y41700D01*
X63429Y41690D01*
X63047Y41614D01*
X62686Y41465D01*
X62362Y41248D01*
X62217Y41117D01*
X60987Y39887D01*
X60819Y40002D01*
X60837Y40091D01*
Y40999D01*
X60810Y41136D01*
X60732Y41252D01*
X60650Y41307D01*
Y40545D01*
X59150D01*
Y41307D01*
X59068Y41252D01*
X58990Y41136D01*
X58963Y40999D01*
Y40091D01*
X58981Y40000D01*
X58901Y39854D01*
X58853Y39800D01*
X58600D01*
X58531Y39800D01*
X58396Y39827D01*
X58268Y39880D01*
X58154Y39956D01*
X58056Y40054D01*
X57980Y40168D01*
X57927Y40296D01*
X57900Y40431D01*
X57900Y40500D01*
X57900Y41700D01*
X57900Y71943D01*
X58100Y71958D01*
X58686Y72099D01*
X59243Y72330D01*
X59756Y72644D01*
X60214Y73036D01*
X60606Y73494D01*
X60920Y74007D01*
X61151Y74564D01*
X61292Y75149D01*
X61339Y75750D01*
X61292Y76351D01*
X61151Y76936D01*
X60920Y77493D01*
X60606Y78006D01*
X60214Y78464D01*
X59756Y78856D01*
X59243Y79170D01*
X58686Y79401D01*
X58100Y79542D01*
X57500Y79589D01*
X56899Y79542D01*
X56314Y79401D01*
X55757Y79170D01*
X55244Y78856D01*
X54785Y78464D01*
X54457Y78080D01*
X45068Y85178D01*
X44910Y85297D01*
X44631Y85578D01*
X44392Y85894D01*
X44199Y86240D01*
X44056Y86609D01*
X43966Y86994D01*
X43929Y87389D01*
X43947Y87784D01*
X44020Y88174D01*
X44146Y88549D01*
X44322Y88904D01*
X44546Y89231D01*
X44679Y89377D01*
X51025Y96345D01*
X51025Y96345D01*
X51025Y96345D01*
X51167Y96501D01*
X51490Y96772D01*
X51848Y96997D01*
X52232Y97173D01*
X52636Y97295D01*
X53053Y97361D01*
X53475Y97371D01*
X53895Y97324D01*
D02*
G37*
G36*
X16508Y97376D02*
X16922Y97221D01*
X17300Y96991D01*
X17464Y96842D01*
X24452Y90488D01*
X24595Y90358D01*
Y90358D01*
X24739Y90224D01*
X24960Y89952D01*
X25144Y89636D01*
X25278Y89297D01*
X25360Y88941D01*
X25386Y88577D01*
X25357Y88213D01*
X25273Y87857D01*
X25136Y87518D01*
X24950Y87204D01*
X24718Y86922D01*
X24446Y86679D01*
X24293Y86579D01*
X12883Y79127D01*
X12883Y79127D01*
X12653Y78965D01*
X12228Y78596D01*
X11859Y78172D01*
X11784Y78057D01*
X11552Y78069D01*
X11214Y78464D01*
X10756Y78856D01*
X10243Y79170D01*
X9686Y79401D01*
X9100Y79542D01*
X8500Y79589D01*
X7899Y79542D01*
X7314Y79401D01*
X6757Y79170D01*
X6244Y78856D01*
X5785Y78464D01*
X5394Y78006D01*
X5080Y77493D01*
X4849Y76936D01*
X4708Y76351D01*
X4661Y75750D01*
X4708Y75149D01*
X4849Y74564D01*
X5080Y74007D01*
X5394Y73494D01*
X5785Y73036D01*
X6244Y72644D01*
X6757Y72330D01*
X7314Y72099D01*
X7899Y71958D01*
X8500Y71911D01*
X8618Y71920D01*
X8731Y71756D01*
X8083Y70383D01*
X8083Y70383D01*
X7962Y70128D01*
X7652Y69657D01*
X7279Y69235D01*
X6850Y68870D01*
X6374Y68568D01*
X5860Y68336D01*
X5319Y68179D01*
X4761Y68100D01*
X4479Y68100D01*
X1514Y68100D01*
X1514Y68100D01*
X1169Y68091D01*
X482Y68024D01*
X-195Y67889D01*
X-856Y67689D01*
X-1494Y67424D01*
X-2103Y67099D01*
X-2677Y66715D01*
X-3211Y66277D01*
X-3461Y66039D01*
X-11078Y58422D01*
X-11078Y58422D01*
X-11347Y58140D01*
X-11840Y57539D01*
X-12272Y56892D01*
X-12639Y56206D01*
X-12937Y55487D01*
X-13162Y54743D01*
X-13314Y53980D01*
X-13390Y53205D01*
X-13400Y52816D01*
X-13400Y43200D01*
X-13394Y43082D01*
X-13348Y42851D01*
X-13258Y42634D01*
X-13128Y42439D01*
X-12961Y42272D01*
X-12814Y42174D01*
X-12783Y42015D01*
X-12794Y41937D01*
X-12931Y41832D01*
X-13132Y41570D01*
X-13258Y41266D01*
X-13301Y40940D01*
X-13258Y40614D01*
X-13132Y40310D01*
X-12987Y40121D01*
X-13081Y39922D01*
X-13900Y39922D01*
X-15338Y39922D01*
X-15377Y39955D01*
X-15477Y40121D01*
X-15463Y40191D01*
Y40645D01*
X-17337D01*
Y40227D01*
X-17388Y40166D01*
X-17523Y40100D01*
X-17681Y40206D01*
X-17769Y40294D01*
X-18120Y40645D01*
X-18650D01*
Y41175D01*
X-18781Y41306D01*
X-18781Y41306D01*
X-18783Y41308D01*
X-18783Y41308D01*
X-18879Y41394D01*
X-18928Y41428D01*
X-18928Y41428D01*
X-18938Y41434D01*
X-19098Y41541D01*
X-19342Y41642D01*
X-19601Y41694D01*
X-19733Y41700D01*
X-21934Y41700D01*
X-21934Y41700D01*
X-22157Y41689D01*
X-22594Y41602D01*
X-23005Y41432D01*
X-23350Y41201D01*
Y40570D01*
X-24005D01*
X-24466Y40109D01*
X-24663Y40195D01*
Y40570D01*
X-26537D01*
Y40116D01*
X-26693Y39922D01*
X-26921D01*
X-27018Y39922D01*
X-27207Y39959D01*
X-27385Y40033D01*
X-27545Y40140D01*
X-27682Y40276D01*
X-27789Y40437D01*
X-27844Y40570D01*
X-27850D01*
Y40585D01*
X-27862Y40615D01*
X-27900Y40804D01*
Y40900D01*
X-27900Y64251D01*
X-27900Y64251D01*
X-27899Y64451D01*
X-27862Y64825D01*
X-27788Y65201D01*
X-27676Y65568D01*
X-27530Y65923D01*
X-27349Y66261D01*
X-27136Y66580D01*
X-26892Y66876D01*
X-26757Y67012D01*
X-24583Y69186D01*
X-24583Y69186D01*
X-24583Y69186D01*
X-24441Y69328D01*
X-24130Y69582D01*
X-23797Y69806D01*
X-23443Y69995D01*
X-23072Y70148D01*
X-22687Y70265D01*
X-22294Y70343D01*
X-21894Y70383D01*
X-21693Y70383D01*
X-16751Y70383D01*
X-16563D01*
X-16563Y70383D01*
X-16563Y70383D01*
X-16212Y70388D01*
X-15511Y70434D01*
X-14815Y70526D01*
X-14126Y70663D01*
X-13447Y70845D01*
X-12782Y71071D01*
X-12133Y71339D01*
X-11504Y71650D01*
X-10895Y72001D01*
X-10311Y72391D01*
X-9754Y72819D01*
X-9226Y73282D01*
X-8974Y73526D01*
X6876Y89376D01*
X7067Y89315D01*
X7109Y89066D01*
X7302Y88397D01*
X7382Y88202D01*
X11395Y92215D01*
X15408Y96228D01*
X15214Y96309D01*
X14545Y96502D01*
X14295Y96544D01*
X14285Y96575D01*
X14266Y96766D01*
X14422Y96922D01*
X14789Y97171D01*
X15196Y97345D01*
X15629Y97439D01*
X16071Y97449D01*
X16508Y97376D01*
D02*
G37*
G36*
X85695Y91851D02*
X85785D01*
X85961Y91816D01*
X86127Y91747D01*
X86276Y91647D01*
X86403Y91521D01*
X86503Y91371D01*
X86571Y91206D01*
X86606Y91030D01*
X86606Y89410D01*
X84980D01*
Y87950D01*
Y86490D01*
X86606D01*
Y85140D01*
X86606Y85140D01*
Y85041D01*
X86568Y84848D01*
X86492Y84666D01*
X86383Y84503D01*
X86244Y84363D01*
X86080Y84254D01*
X85898Y84178D01*
X85705Y84140D01*
X85606Y84140D01*
X79406D01*
X79406Y84140D01*
X79406Y84140D01*
X79216Y84162D01*
X79173Y84171D01*
X79027Y84231D01*
X78896Y84319D01*
X78785Y84430D01*
X78697Y84561D01*
X78637Y84707D01*
X78606Y84861D01*
X78606Y84940D01*
X78606Y90940D01*
X78606Y90940D01*
X78606Y90940D01*
X78627Y91132D01*
X78641Y91206D01*
X78710Y91371D01*
X78810Y91521D01*
X78937Y91648D01*
X79086Y91747D01*
X79252Y91816D01*
X79427Y91851D01*
X79517D01*
X85695Y91851D01*
X85695Y91851D01*
D02*
G37*
G36*
X-14323Y91151D02*
X-14234D01*
X-14058Y91116D01*
X-13892Y91047D01*
X-13743Y90948D01*
X-13616Y90821D01*
X-13516Y90671D01*
X-13447Y90506D01*
X-13431Y90424D01*
X-13412Y90240D01*
Y90240D01*
X-13412D01*
X-13412Y90240D01*
X-13412Y84240D01*
X-13412Y84161D01*
X-13443Y84007D01*
X-13503Y83861D01*
X-13591Y83730D01*
X-13702Y83619D01*
X-13834Y83531D01*
X-13979Y83471D01*
X-14026Y83461D01*
X-14212Y83440D01*
X-14212Y83440D01*
X-14212Y83440D01*
X-20412D01*
X-20511Y83440D01*
X-20704Y83478D01*
X-20886Y83554D01*
X-21012Y83638D01*
X-21158Y84248D01*
X-21401Y84834D01*
X-21412Y84853D01*
Y85690D01*
X-19000D01*
Y87150D01*
Y88610D01*
X-21412D01*
Y90330D01*
X-21377Y90506D01*
X-21309Y90671D01*
X-21209Y90821D01*
X-21082Y90948D01*
X-20933Y91047D01*
X-20767Y91116D01*
X-20591Y91151D01*
X-20502D01*
X-20502Y91151D01*
X-14323Y91151D01*
D02*
G37*
G36*
X91875Y33100D02*
X91875Y33100D01*
X91875D01*
X92056Y33061D01*
X92122Y33034D01*
X92245Y32911D01*
X92311Y32750D01*
X92311Y31036D01*
X92311Y31036D01*
Y30930D01*
X92230Y30732D01*
X92079Y30582D01*
X91882Y30500D01*
X90483D01*
X90311Y30651D01*
Y30825D01*
X89780D01*
Y31225D01*
X89380D01*
Y32246D01*
X89375Y32251D01*
X89375Y32600D01*
X89375Y32600D01*
X89375Y32600D01*
X89409Y32782D01*
X89451Y32883D01*
X89592Y33024D01*
X89766Y33096D01*
X90275D01*
X90354Y33096D01*
X90374Y33100D01*
X91875Y33100D01*
X91875Y33100D01*
D02*
G37*
G36*
X6400Y33100D02*
X6400Y33100D01*
X6400D01*
X6581Y33061D01*
X6647Y33034D01*
X6770Y32911D01*
X6836Y32751D01*
X6836Y31036D01*
X6836Y31036D01*
Y30930D01*
X6755Y30733D01*
X6604Y30582D01*
X6407Y30500D01*
X5008D01*
X4836Y30651D01*
Y30825D01*
X4305D01*
Y31225D01*
X3905D01*
Y32246D01*
X3900Y32251D01*
X3900Y32600D01*
X3900Y32600D01*
X3900Y32600D01*
X3934Y32782D01*
X3976Y32883D01*
X4117Y33024D01*
X4291Y33096D01*
X4800D01*
X4880Y33096D01*
X4899Y33100D01*
X6400Y33100D01*
X6400Y33100D01*
D02*
G37*
G36*
X-17000D02*
X-17000Y33100D01*
X-17000D01*
X-16819Y33061D01*
X-16753Y33034D01*
X-16630Y32911D01*
X-16564Y32750D01*
X-16564Y32664D01*
X-16564Y30881D01*
X-16564Y30881D01*
X-16564Y30805D01*
X-16622Y30665D01*
X-16729Y30558D01*
X-16869Y30500D01*
X-16944Y30500D01*
X-18392Y30500D01*
X-18505Y30599D01*
X-18564Y30700D01*
Y30825D01*
X-19095D01*
Y31225D01*
X-19495D01*
Y32246D01*
X-19500Y32252D01*
X-19500Y32700D01*
X-19500Y32700D01*
X-19500Y32700D01*
X-19457Y32882D01*
X-19439Y32927D01*
X-19327Y33039D01*
X-19189Y33096D01*
X-18600D01*
X-18520Y33096D01*
X-18501Y33100D01*
X-17000Y33100D01*
X-17000Y33100D01*
D02*
G37*
G36*
X66449Y33075D02*
X68525Y33075D01*
X68525Y33075D01*
X68525Y33075D01*
X68525D01*
X68705Y33034D01*
X68758Y33012D01*
X68874Y32897D01*
X68936Y32746D01*
X68936Y32664D01*
X68936Y30936D01*
X68936Y30936D01*
X68936Y30845D01*
X68866Y30675D01*
X68736Y30545D01*
X68567Y30475D01*
X67108Y30475D01*
X66995Y30574D01*
X66936Y30675D01*
Y30800D01*
X66405D01*
Y31200D01*
X66005D01*
Y32221D01*
X66000Y32226D01*
X66000Y32626D01*
X66039Y32810D01*
X66068Y32880D01*
X66195Y33007D01*
X66360Y33075D01*
X66449Y33075D01*
D02*
G37*
G36*
X70463Y24119D02*
X70467Y24100D01*
Y23325D01*
X71555D01*
Y22925D01*
X71955D01*
Y21307D01*
X72215D01*
X72350Y21196D01*
Y20400D01*
X72350Y20301D01*
X72274Y20117D01*
X72133Y19976D01*
X72035Y19936D01*
X71850Y19900D01*
X71650Y19900D01*
X69950Y19900D01*
X69831D01*
X69610Y19991D01*
X69441Y20160D01*
X69350Y20381D01*
X69350Y20500D01*
X69350Y20500D01*
X69350Y23899D01*
X69426Y24083D01*
X69567Y24224D01*
X69751Y24300D01*
X69850Y24300D01*
X69850Y24300D01*
X70300Y24300D01*
X70463Y24119D01*
D02*
G37*
G36*
X75650Y24300D02*
X75650Y24300D01*
X75650Y24300D01*
X75650D01*
X75833Y24273D01*
X75990Y24209D01*
X76159Y24040D01*
X76250Y23819D01*
X76250Y23700D01*
X76250Y20450D01*
X76250Y20450D01*
X76250Y20331D01*
X76159Y20110D01*
X75990Y19941D01*
X75769Y19850D01*
X75650Y19850D01*
X73750Y19850D01*
X73651Y19850D01*
X73467Y19926D01*
X73326Y20067D01*
X73250Y20251D01*
X73250Y20350D01*
Y21165D01*
X73450Y21314D01*
X73485Y21307D01*
X73645D01*
Y22925D01*
X74145D01*
Y23425D01*
X75233D01*
Y24100D01*
X75237Y24119D01*
X75400Y24300D01*
X75650Y24300D01*
D02*
G37*
G36*
X-3123Y24001D02*
X-3123Y24001D01*
X-3123Y24001D01*
X-3123D01*
X-2939Y23978D01*
X-2919Y23974D01*
X-2791Y23921D01*
X-2677Y23845D01*
X-2579Y23747D01*
X-2503Y23633D01*
X-2450Y23505D01*
X-2423Y23370D01*
X-2423Y20801D01*
X-2423Y20801D01*
X-2423Y20682D01*
X-2514Y20461D01*
X-2683Y20292D01*
X-2904Y20201D01*
X-3023Y20201D01*
X-5123Y20201D01*
X-5123Y20201D01*
X-5308Y20237D01*
X-5406Y20277D01*
X-5547Y20418D01*
X-5623Y20602D01*
X-5623Y20701D01*
X-5623Y21282D01*
X-5505D01*
Y22900D01*
X-5005D01*
Y23400D01*
X-3917D01*
Y23860D01*
X-3775Y24001D01*
X-3123Y24001D01*
D02*
G37*
G36*
X-11400Y25300D02*
X-7623Y25300D01*
X-7623Y25300D01*
X-7623Y25300D01*
X-7623D01*
X-7440Y25271D01*
X-7304Y25214D01*
X-7145Y25055D01*
X-7059Y24848D01*
Y24660D01*
X-7195Y24524D01*
Y22900D01*
Y21282D01*
X-7059D01*
X-7059Y20841D01*
X-7059Y20841D01*
X-7059Y20713D01*
X-7157Y20478D01*
X-7337Y20298D01*
X-7572Y20200D01*
X-7700Y20200D01*
X-11300Y20200D01*
X-11419Y20200D01*
X-11640Y20291D01*
X-11809Y20460D01*
X-11900Y20681D01*
X-11900Y20800D01*
X-11900Y21257D01*
X-11705D01*
Y22875D01*
Y24493D01*
X-11900D01*
X-11900Y24800D01*
X-11900Y24800D01*
X-11900Y24800D01*
X-11866Y24982D01*
X-11824Y25083D01*
X-11683Y25224D01*
X-11499Y25300D01*
X-11400Y25300D01*
D02*
G37*
G36*
X-14983Y23859D02*
Y23375D01*
X-13895D01*
Y22875D01*
X-13395D01*
Y21257D01*
X-13300D01*
X-13100Y21113D01*
X-13100Y20700D01*
X-13100Y20601D01*
X-13176Y20417D01*
X-13317Y20276D01*
X-13415Y20236D01*
X-13600Y20200D01*
Y20200D01*
X-15700Y20200D01*
X-15819Y20200D01*
X-16040Y20291D01*
X-16209Y20460D01*
X-16300Y20681D01*
X-16300Y20800D01*
X-16300Y23369D01*
X-16273Y23504D01*
X-16220Y23632D01*
X-16144Y23746D01*
X-16046Y23844D01*
X-15932Y23920D01*
X-15804Y23973D01*
X-15669Y24000D01*
X-15600Y24000D01*
Y24000D01*
X-15125Y24000D01*
X-14983Y23859D01*
D02*
G37*
%LPC*%
G36*
X51738Y123890D02*
X51500D01*
Y120380D01*
X52260D01*
Y123367D01*
X52220Y123567D01*
X52107Y123737D01*
X51938Y123850D01*
X51738Y123890D01*
D02*
G37*
G36*
X50100D02*
X49863D01*
X49663Y123850D01*
X49493Y123737D01*
X49380Y123567D01*
X49340Y123367D01*
Y120380D01*
X50100D01*
Y123890D01*
D02*
G37*
G36*
X35670Y121100D02*
X35550D01*
Y120980D01*
X35616Y121034D01*
X35670Y121100D01*
D02*
G37*
G36*
X30550D02*
X30430D01*
X30484Y121034D01*
X30550Y120980D01*
Y121100D01*
D02*
G37*
G36*
X26525Y118881D02*
X26342Y118857D01*
X26172Y118786D01*
X26026Y118674D01*
X25914Y118528D01*
X25843Y118358D01*
X25819Y118175D01*
X25843Y117992D01*
X25914Y117822D01*
X26026Y117676D01*
X26172Y117564D01*
X26342Y117493D01*
X26525Y117469D01*
X26708Y117493D01*
X26878Y117564D01*
X27024Y117676D01*
X27136Y117822D01*
X27207Y117992D01*
X27231Y118175D01*
X27207Y118358D01*
X27136Y118528D01*
X27024Y118674D01*
X26878Y118786D01*
X26708Y118857D01*
X26525Y118881D01*
D02*
G37*
G36*
X39084Y113600D02*
X39000Y113600D01*
X26841D01*
X26841Y113600D01*
X26762D01*
X26608Y113569D01*
X26462Y113509D01*
X26331Y113421D01*
X26220Y113310D01*
X26132Y113179D01*
X26072Y113033D01*
X26041Y112879D01*
X26041Y110700D01*
X26041Y110700D01*
X26041Y110621D01*
X26072Y110467D01*
X26132Y110321D01*
X26220Y110190D01*
X26331Y110079D01*
X26462Y109991D01*
X26608Y109931D01*
X26763Y109900D01*
X26841Y109900D01*
X39000Y109900D01*
Y109900D01*
X39000Y109900D01*
X39084Y109900D01*
X39248Y109933D01*
X39403Y109997D01*
X39542Y110090D01*
X39660Y110208D01*
X39753Y110347D01*
X39817Y110502D01*
X39850Y110666D01*
X39850Y110750D01*
X39850Y112750D01*
X39850D01*
X39850Y112750D01*
X39850Y112750D01*
X39850Y112834D01*
X39817Y112998D01*
X39753Y113153D01*
X39660Y113292D01*
X39542Y113410D01*
X39403Y113503D01*
X39248Y113567D01*
X39084Y113600D01*
D02*
G37*
G36*
X29000Y107999D02*
Y107750D01*
X29249D01*
X29137Y107887D01*
X29000Y107999D01*
D02*
G37*
G36*
X27000Y107999D02*
X26863Y107887D01*
X26751Y107750D01*
X27000D01*
Y107999D01*
D02*
G37*
G36*
X34000Y107999D02*
Y107750D01*
X34249D01*
X34137Y107887D01*
X34000Y107999D01*
D02*
G37*
G36*
X32000Y107999D02*
X31863Y107887D01*
X31751Y107750D01*
X32000D01*
Y107999D01*
D02*
G37*
G36*
X39000Y107999D02*
Y107750D01*
X39249D01*
X39137Y107887D01*
X39000Y107999D01*
D02*
G37*
G36*
X37000Y107999D02*
X36863Y107887D01*
X36751Y107750D01*
X37000D01*
Y107999D01*
D02*
G37*
G36*
X51800Y109818D02*
Y106620D01*
X52260D01*
Y109308D01*
X52220Y109507D01*
X52107Y109677D01*
X51938Y109790D01*
X51800Y109818D01*
D02*
G37*
G36*
X49800D02*
X49663Y109790D01*
X49493Y109677D01*
X49380Y109507D01*
X49340Y109308D01*
Y106620D01*
X49800D01*
Y109818D01*
D02*
G37*
G36*
X1478Y110158D02*
X-767Y107913D01*
X1478Y105668D01*
X1559Y105862D01*
X1752Y106531D01*
X1868Y107218D01*
X1907Y107913D01*
X1868Y108608D01*
X1752Y109295D01*
X1559Y109964D01*
X1478Y110158D01*
D02*
G37*
G36*
X29249Y105750D02*
X29000D01*
Y105501D01*
X29137Y105613D01*
X29249Y105750D01*
D02*
G37*
G36*
X37000Y105750D02*
X36751D01*
X36863Y105613D01*
X37000Y105501D01*
Y105750D01*
D02*
G37*
G36*
X34249Y105750D02*
X34000D01*
Y105501D01*
X34137Y105613D01*
X34249Y105750D01*
D02*
G37*
G36*
X32000D02*
X31751D01*
X31863Y105613D01*
X32000Y105501D01*
Y105750D01*
D02*
G37*
G36*
X39249Y105750D02*
X39000D01*
Y105501D01*
X39137Y105613D01*
X39249Y105750D01*
D02*
G37*
G36*
X27000Y105750D02*
X26751D01*
X26863Y105613D01*
X27000Y105501D01*
Y105750D01*
D02*
G37*
G36*
X15100Y107118D02*
Y103920D01*
X15560D01*
Y106607D01*
X15520Y106807D01*
X15407Y106977D01*
X15238Y107090D01*
X15100Y107118D01*
D02*
G37*
G36*
X13100Y107118D02*
X12963Y107090D01*
X12793Y106977D01*
X12680Y106807D01*
X12640Y106607D01*
Y103920D01*
X13100D01*
Y107118D01*
D02*
G37*
G36*
X37500Y103320D02*
Y103200D01*
X37620D01*
X37566Y103266D01*
X37500Y103320D01*
D02*
G37*
G36*
X35500D02*
X35434Y103266D01*
X35380Y103200D01*
X35500D01*
Y103320D01*
D02*
G37*
G36*
X34000D02*
Y103200D01*
X34120D01*
X34066Y103266D01*
X34000Y103320D01*
D02*
G37*
G36*
X32000D02*
X31934Y103266D01*
X31880Y103200D01*
X32000D01*
Y103320D01*
D02*
G37*
G36*
X30500D02*
Y103200D01*
X30620D01*
X30566Y103266D01*
X30500Y103320D01*
D02*
G37*
G36*
X28500D02*
X28434Y103266D01*
X28380Y103200D01*
X28500D01*
Y103320D01*
D02*
G37*
G36*
X71021Y105356D02*
X68980Y102924D01*
X69181Y102861D01*
X69864Y102727D01*
X70558Y102671D01*
X71254Y102692D01*
X71943Y102792D01*
X72617Y102968D01*
X73267Y103218D01*
X73454Y103315D01*
X71021Y105356D01*
D02*
G37*
G36*
X-4302Y104378D02*
X-6548Y102132D01*
X-6353Y102052D01*
X-5684Y101859D01*
X-4998Y101742D01*
X-4302Y101703D01*
X-3607Y101742D01*
X-2921Y101859D01*
X-2251Y102052D01*
X-2057Y102132D01*
X-4302Y104378D01*
D02*
G37*
G36*
X52260Y104620D02*
X51800D01*
Y101422D01*
X51938Y101450D01*
X52107Y101563D01*
X52220Y101733D01*
X52260Y101933D01*
Y104620D01*
D02*
G37*
G36*
X49800D02*
X49340D01*
Y101933D01*
X49380Y101733D01*
X49493Y101563D01*
X49663Y101450D01*
X49800Y101422D01*
Y104620D01*
D02*
G37*
G36*
X73908Y89410D02*
X71220D01*
Y88950D01*
X74418D01*
X74390Y89087D01*
X74277Y89257D01*
X74108Y89370D01*
X73908Y89410D01*
D02*
G37*
G36*
X-552Y88610D02*
X-3240D01*
Y88150D01*
X-42D01*
X-70Y88287D01*
X-183Y88457D01*
X-352Y88570D01*
X-552Y88610D01*
D02*
G37*
G36*
X-5240D02*
X-7927D01*
X-8127Y88570D01*
X-8297Y88457D01*
X-8410Y88287D01*
X-8438Y88150D01*
X-5240D01*
Y88610D01*
D02*
G37*
G36*
X74418Y86950D02*
X71220D01*
Y86490D01*
X73908D01*
X74108Y86530D01*
X74277Y86643D01*
X74390Y86813D01*
X74418Y86950D01*
D02*
G37*
G36*
X-42Y86150D02*
X-3240D01*
Y85690D01*
X-552D01*
X-352Y85730D01*
X-183Y85843D01*
X-70Y86013D01*
X-42Y86150D01*
D02*
G37*
G36*
X-5240D02*
X-8438D01*
X-8410Y86013D01*
X-8297Y85843D01*
X-8127Y85730D01*
X-7927Y85690D01*
X-5240D01*
Y86150D01*
D02*
G37*
G36*
X15038Y121190D02*
X14800D01*
Y117680D01*
X15560D01*
Y120667D01*
X15520Y120867D01*
X15407Y121037D01*
X15238Y121150D01*
X15038Y121190D01*
D02*
G37*
G36*
X13400D02*
X13163D01*
X12963Y121150D01*
X12793Y121037D01*
X12680Y120867D01*
X12640Y120667D01*
Y117680D01*
X13400D01*
Y121190D01*
D02*
G37*
G36*
X48882Y91690D02*
X48818Y91490D01*
X48685Y90806D01*
X48628Y90112D01*
X48650Y89416D01*
X48749Y88727D01*
X48926Y88053D01*
X49176Y87403D01*
X49273Y87217D01*
X51314Y89649D01*
X48882Y91690D01*
D02*
G37*
G36*
X55144Y86435D02*
X53103Y84003D01*
X53304Y83940D01*
X53987Y83806D01*
X54681Y83749D01*
X55377Y83771D01*
X56067Y83871D01*
X56740Y84047D01*
X57390Y84297D01*
X57577Y84394D01*
X55144Y86435D01*
D02*
G37*
G36*
X90250Y77877D02*
Y77100D01*
X91027D01*
X90920Y77299D01*
X90708Y77558D01*
X90449Y77770D01*
X90250Y77877D01*
D02*
G37*
G36*
X88750Y77877D02*
X88551Y77770D01*
X88292Y77558D01*
X88080Y77299D01*
X87973Y77100D01*
X88750D01*
Y77877D01*
D02*
G37*
G36*
Y75600D02*
X87973D01*
X88080Y75401D01*
X88292Y75142D01*
X88551Y74930D01*
X88750Y74823D01*
Y75600D01*
D02*
G37*
G36*
X91027D02*
X90250D01*
Y74823D01*
X90449Y74930D01*
X90708Y75142D01*
X90920Y75401D01*
X91027Y75600D01*
D02*
G37*
G36*
X89500Y72608D02*
X89167Y72575D01*
X88846Y72478D01*
X88551Y72320D01*
X88292Y72108D01*
X88080Y71849D01*
X87922Y71554D01*
X87825Y71233D01*
X87792Y70900D01*
X87825Y70567D01*
X87922Y70246D01*
X88080Y69951D01*
X88292Y69692D01*
X88551Y69480D01*
X88846Y69322D01*
X89167Y69225D01*
X89500Y69192D01*
X89833Y69225D01*
X90154Y69322D01*
X90449Y69480D01*
X90708Y69692D01*
X90920Y69951D01*
X91078Y70246D01*
X91175Y70567D01*
X91208Y70900D01*
X91175Y71233D01*
X91078Y71554D01*
X90920Y71849D01*
X90708Y72108D01*
X90449Y72320D01*
X90154Y72478D01*
X89833Y72575D01*
X89500Y72608D01*
D02*
G37*
G36*
X89500Y67158D02*
X89167Y67125D01*
X88846Y67028D01*
X88551Y66870D01*
X88292Y66658D01*
X88080Y66399D01*
X87922Y66104D01*
X87825Y65783D01*
X87792Y65450D01*
X87825Y65117D01*
X87922Y64796D01*
X88080Y64501D01*
X88292Y64242D01*
X88551Y64030D01*
X88846Y63872D01*
X89167Y63775D01*
X89500Y63742D01*
X89833Y63775D01*
X90154Y63872D01*
X90449Y64030D01*
X90708Y64242D01*
X90920Y64501D01*
X91078Y64796D01*
X91175Y65117D01*
X91208Y65450D01*
X91175Y65783D01*
X91078Y66104D01*
X90920Y66399D01*
X90708Y66658D01*
X90449Y66870D01*
X90154Y67028D01*
X89833Y67125D01*
X89500Y67158D01*
D02*
G37*
G36*
X67275Y64212D02*
X67195D01*
X67195Y64212D01*
X67045Y64182D01*
X67026Y64179D01*
X67020Y64177D01*
X66961Y64165D01*
X66888Y64135D01*
X66838Y64101D01*
X66832Y64099D01*
X66816Y64087D01*
X66689Y64002D01*
X66633Y63946D01*
X66548Y63819D01*
X66536Y63803D01*
X66534Y63798D01*
X66500Y63747D01*
X66470Y63674D01*
X66458Y63615D01*
X66456Y63609D01*
X66453Y63590D01*
X66423Y63440D01*
Y63420D01*
X66419Y63400D01*
X66423Y63380D01*
Y63360D01*
X66423Y63360D01*
X66453Y63210D01*
X66456Y63191D01*
X66458Y63185D01*
X66470Y63126D01*
X66500Y63053D01*
X66534Y63003D01*
X66536Y62997D01*
X66548Y62981D01*
X66633Y62854D01*
X66689Y62798D01*
X66816Y62713D01*
X66832Y62701D01*
X66838Y62699D01*
X66888Y62665D01*
X66961Y62635D01*
X67020Y62623D01*
X67026Y62621D01*
X67045Y62618D01*
X67195Y62588D01*
X67275D01*
X67275Y62588D01*
X67425Y62618D01*
X67444Y62621D01*
X67450Y62623D01*
X67509Y62635D01*
X67582Y62665D01*
X67633Y62699D01*
X67638Y62701D01*
X67654Y62713D01*
X67781Y62798D01*
X67837Y62854D01*
X67922Y62981D01*
X67934Y62997D01*
X67936Y63003D01*
X67970Y63053D01*
X68000Y63126D01*
X68012Y63185D01*
X68014Y63191D01*
X68017Y63210D01*
X68047Y63360D01*
Y63380D01*
X68051Y63400D01*
X68047Y63420D01*
Y63440D01*
X68047Y63440D01*
X68017Y63590D01*
X68014Y63609D01*
X68012Y63615D01*
X68000Y63674D01*
X67970Y63747D01*
X67936Y63798D01*
X67934Y63803D01*
X67922Y63819D01*
X67837Y63946D01*
X67781Y64002D01*
X67654Y64087D01*
X67638Y64099D01*
X67633Y64101D01*
X67582Y64135D01*
X67509Y64165D01*
X67450Y64177D01*
X67444Y64179D01*
X67425Y64182D01*
X67275Y64212D01*
D02*
G37*
G36*
X89500Y60459D02*
X89128Y60423D01*
X88769Y60314D01*
X88439Y60137D01*
X88150Y59900D01*
X87913Y59611D01*
X87736Y59281D01*
X87628Y58922D01*
X87591Y58550D01*
X87628Y58178D01*
X87736Y57819D01*
X87913Y57489D01*
X88150Y57200D01*
X88439Y56963D01*
X88769Y56786D01*
X89128Y56678D01*
X89500Y56641D01*
X89872Y56678D01*
X90231Y56786D01*
X90561Y56963D01*
X90850Y57200D01*
X91087Y57489D01*
X91264Y57819D01*
X91373Y58178D01*
X91409Y58550D01*
X91373Y58922D01*
X91264Y59281D01*
X91087Y59611D01*
X90850Y59900D01*
X90561Y60137D01*
X90231Y60314D01*
X89872Y60423D01*
X89500Y60459D01*
D02*
G37*
G36*
X68175Y62108D02*
X67842Y62075D01*
X67521Y61978D01*
X67226Y61820D01*
X66967Y61608D01*
X66755Y61349D01*
X66597Y61054D01*
X66500Y60733D01*
X66467Y60400D01*
X66500Y60067D01*
X66597Y59746D01*
X66755Y59451D01*
X66967Y59192D01*
X67176Y59021D01*
X67196Y58941D01*
Y58859D01*
X67176Y58780D01*
X66967Y58608D01*
X66755Y58349D01*
X66597Y58054D01*
X66500Y57733D01*
X66467Y57400D01*
X66500Y57067D01*
X66597Y56746D01*
X66755Y56451D01*
X66967Y56192D01*
X67226Y55980D01*
X67521Y55822D01*
X67842Y55725D01*
X68175Y55692D01*
X68508Y55725D01*
X68829Y55822D01*
X69124Y55980D01*
X69383Y56192D01*
X69595Y56451D01*
X69675Y56600D01*
X69902D01*
X69922Y56563D01*
X70109Y56334D01*
X70338Y56147D01*
X70598Y56007D01*
X70881Y55922D01*
X71175Y55893D01*
X71469Y55922D01*
X71752Y56007D01*
X72012Y56147D01*
X72241Y56334D01*
X72428Y56563D01*
X72568Y56823D01*
X72653Y57106D01*
X72682Y57400D01*
X72653Y57694D01*
X72568Y57977D01*
X72428Y58237D01*
X72241Y58466D01*
X72012Y58653D01*
X71752Y58793D01*
X71742Y58796D01*
Y59005D01*
X71752Y59007D01*
X72012Y59147D01*
X72241Y59334D01*
X72428Y59563D01*
X72568Y59823D01*
X72653Y60106D01*
X72682Y60400D01*
X72653Y60694D01*
X72568Y60977D01*
X72428Y61237D01*
X72241Y61466D01*
X72012Y61653D01*
X71752Y61793D01*
X71469Y61878D01*
X71175Y61907D01*
X70881Y61878D01*
X70598Y61793D01*
X70338Y61653D01*
X70109Y61466D01*
X69922Y61237D01*
X69902Y61200D01*
X69675D01*
X69595Y61349D01*
X69383Y61608D01*
X69124Y61820D01*
X68829Y61978D01*
X68508Y62075D01*
X68175Y62108D01*
D02*
G37*
G36*
X90250Y54627D02*
Y53850D01*
X91027D01*
X90920Y54049D01*
X90708Y54308D01*
X90449Y54520D01*
X90250Y54627D01*
D02*
G37*
G36*
X88750Y54627D02*
X88551Y54520D01*
X88292Y54308D01*
X88080Y54049D01*
X87973Y53850D01*
X88750D01*
Y54627D01*
D02*
G37*
G36*
X67275Y55212D02*
X67195D01*
X67195Y55212D01*
X67045Y55182D01*
X67026Y55179D01*
X67020Y55177D01*
X66961Y55165D01*
X66888Y55135D01*
X66838Y55101D01*
X66832Y55099D01*
X66816Y55087D01*
X66689Y55002D01*
X66633Y54946D01*
X66548Y54819D01*
X66536Y54803D01*
X66534Y54798D01*
X66500Y54747D01*
X66470Y54674D01*
X66458Y54615D01*
X66456Y54609D01*
X66453Y54590D01*
X66423Y54440D01*
Y54420D01*
X66419Y54400D01*
X66423Y54380D01*
Y54360D01*
X66423Y54360D01*
X66453Y54210D01*
X66456Y54191D01*
X66458Y54185D01*
X66470Y54126D01*
X66500Y54053D01*
X66534Y54003D01*
X66536Y53997D01*
X66548Y53981D01*
X66633Y53854D01*
X66689Y53798D01*
X66816Y53713D01*
X66832Y53701D01*
X66838Y53699D01*
X66888Y53665D01*
X66961Y53635D01*
X67020Y53623D01*
X67026Y53621D01*
X67045Y53618D01*
X67195Y53588D01*
X67275D01*
X67275Y53588D01*
X67425Y53618D01*
X67444Y53621D01*
X67450Y53623D01*
X67509Y53635D01*
X67582Y53665D01*
X67633Y53699D01*
X67638Y53701D01*
X67654Y53713D01*
X67781Y53798D01*
X67837Y53854D01*
X67922Y53981D01*
X67934Y53997D01*
X67936Y54003D01*
X67970Y54053D01*
X68000Y54126D01*
X68012Y54185D01*
X68014Y54191D01*
X68017Y54210D01*
X68047Y54360D01*
Y54380D01*
X68051Y54400D01*
X68047Y54420D01*
Y54440D01*
X68047Y54440D01*
X68017Y54590D01*
X68014Y54609D01*
X68012Y54615D01*
X68000Y54674D01*
X67970Y54747D01*
X67936Y54798D01*
X67934Y54803D01*
X67922Y54819D01*
X67837Y54946D01*
X67781Y55002D01*
X67654Y55087D01*
X67638Y55099D01*
X67633Y55101D01*
X67582Y55135D01*
X67509Y55165D01*
X67450Y55177D01*
X67444Y55179D01*
X67425Y55182D01*
X67275Y55212D01*
D02*
G37*
G36*
X88750Y52350D02*
X87973D01*
X88080Y52151D01*
X88292Y51892D01*
X88551Y51680D01*
X88750Y51573D01*
Y52350D01*
D02*
G37*
G36*
X91027D02*
X90250D01*
Y51573D01*
X90449Y51680D01*
X90708Y51892D01*
X90920Y52151D01*
X91027Y52350D01*
D02*
G37*
G36*
X18944Y92693D02*
X16699Y90448D01*
X18944Y88202D01*
X19024Y88397D01*
X19217Y89066D01*
X19334Y89752D01*
X19373Y90448D01*
X19334Y91143D01*
X19217Y91829D01*
X19024Y92499D01*
X18944Y92693D01*
D02*
G37*
G36*
X21000Y87965D02*
X20987Y87962D01*
X20973Y87963D01*
X20647Y87920D01*
X20628Y87914D01*
X20621Y87913D01*
X20615Y87910D01*
X20596Y87906D01*
X20292Y87780D01*
X20275Y87769D01*
X20269Y87767D01*
X20264Y87763D01*
X20245Y87754D01*
X19984Y87553D01*
X19971Y87538D01*
X19966Y87534D01*
X19962Y87529D01*
X19947Y87516D01*
X19746Y87255D01*
X19737Y87237D01*
X19733Y87231D01*
X19731Y87225D01*
X19720Y87208D01*
X19594Y86904D01*
X19590Y86885D01*
X19587Y86879D01*
X19586Y86872D01*
X19580Y86853D01*
X19537Y86527D01*
X19538Y86507D01*
X19537Y86500D01*
X19538Y86493D01*
X19537Y86473D01*
X19580Y86147D01*
X19586Y86128D01*
X19587Y86121D01*
X19589Y86118D01*
X19590Y86116D01*
Y86116D01*
X19590Y86115D01*
X19594Y86096D01*
X19720Y85792D01*
X19731Y85775D01*
X19733Y85769D01*
X19737Y85763D01*
X19746Y85745D01*
X19947Y85484D01*
X19962Y85471D01*
X19966Y85466D01*
X19971Y85462D01*
X19984Y85447D01*
X20245Y85246D01*
X20264Y85237D01*
X20269Y85233D01*
X20275Y85231D01*
X20292Y85220D01*
X20596Y85094D01*
X20615Y85090D01*
X20621Y85087D01*
X20628Y85086D01*
X20647Y85080D01*
X20973Y85037D01*
X20987Y85038D01*
X21000Y85035D01*
X21013Y85038D01*
X21027Y85037D01*
X21353Y85080D01*
X21372Y85086D01*
X21379Y85087D01*
X21385Y85090D01*
X21404Y85094D01*
X21708Y85220D01*
X21725Y85231D01*
X21731Y85233D01*
X21736Y85237D01*
X21755Y85246D01*
X22016Y85447D01*
X22029Y85462D01*
X22034Y85466D01*
X22038Y85471D01*
X22053Y85484D01*
X22254Y85745D01*
X22263Y85763D01*
X22267Y85769D01*
X22269Y85775D01*
X22280Y85792D01*
X22406Y86096D01*
X22410Y86115D01*
X22413Y86121D01*
X22414Y86128D01*
X22420Y86147D01*
X22463Y86473D01*
X22462Y86493D01*
X22463Y86500D01*
X22462Y86507D01*
X22463Y86527D01*
X22420Y86853D01*
X22414Y86872D01*
X22413Y86879D01*
X22410Y86885D01*
X22406Y86904D01*
X22280Y87208D01*
X22269Y87225D01*
X22267Y87231D01*
X22263Y87237D01*
X22254Y87255D01*
X22053Y87516D01*
X22038Y87529D01*
X22034Y87534D01*
X22029Y87538D01*
X22016Y87553D01*
X21755Y87754D01*
X21736Y87763D01*
X21731Y87767D01*
X21725Y87769D01*
X21708Y87780D01*
X21404Y87906D01*
X21385Y87910D01*
X21379Y87913D01*
X21372Y87914D01*
X21353Y87920D01*
X21027Y87963D01*
X21013Y87962D01*
X21000Y87965D01*
D02*
G37*
G36*
X13163Y86912D02*
X10918Y84667D01*
X11112Y84586D01*
X11781Y84394D01*
X12468Y84277D01*
X13163Y84238D01*
X13858Y84277D01*
X14545Y84394D01*
X15214Y84586D01*
X15408Y84667D01*
X13163Y86912D01*
D02*
G37*
G36*
X-22600Y69208D02*
X-22933Y69175D01*
X-23254Y69078D01*
X-23549Y68920D01*
X-23808Y68708D01*
X-24020Y68449D01*
X-24178Y68154D01*
X-24275Y67833D01*
X-24308Y67500D01*
X-24275Y67167D01*
X-24178Y66846D01*
X-24020Y66551D01*
X-23808Y66292D01*
X-23549Y66080D01*
X-23254Y65922D01*
X-22933Y65825D01*
X-22600Y65792D01*
X-22267Y65825D01*
X-21946Y65922D01*
X-21651Y66080D01*
X-21392Y66292D01*
X-21180Y66551D01*
X-21022Y66846D01*
X-20925Y67167D01*
X-20892Y67500D01*
X-20925Y67833D01*
X-21022Y68154D01*
X-21180Y68449D01*
X-21392Y68708D01*
X-21651Y68920D01*
X-21946Y69078D01*
X-22267Y69175D01*
X-22600Y69208D01*
D02*
G37*
G36*
X-22600Y56858D02*
X-22933Y56825D01*
X-23254Y56728D01*
X-23549Y56570D01*
X-23808Y56358D01*
X-24020Y56099D01*
X-24178Y55804D01*
X-24275Y55483D01*
X-24308Y55150D01*
X-24275Y54817D01*
X-24178Y54496D01*
X-24020Y54201D01*
X-23808Y53942D01*
X-23549Y53730D01*
X-23254Y53572D01*
X-22933Y53475D01*
X-22600Y53442D01*
X-22267Y53475D01*
X-21946Y53572D01*
X-21651Y53730D01*
X-21392Y53942D01*
X-21180Y54201D01*
X-21022Y54496D01*
X-20925Y54817D01*
X-20892Y55150D01*
X-20925Y55483D01*
X-21022Y55804D01*
X-21180Y56099D01*
X-21392Y56358D01*
X-21651Y56570D01*
X-21946Y56728D01*
X-22267Y56825D01*
X-22600Y56858D01*
D02*
G37*
G36*
X-22600Y46159D02*
X-22972Y46123D01*
X-23331Y46014D01*
X-23661Y45837D01*
X-23950Y45600D01*
X-24187Y45311D01*
X-24364Y44981D01*
X-24472Y44622D01*
X-24509Y44250D01*
X-24472Y43878D01*
X-24364Y43519D01*
X-24187Y43189D01*
X-23950Y42900D01*
X-23661Y42663D01*
X-23331Y42486D01*
X-22972Y42378D01*
X-22600Y42341D01*
X-22228Y42378D01*
X-21869Y42486D01*
X-21539Y42663D01*
X-21250Y42900D01*
X-21013Y43189D01*
X-20836Y43519D01*
X-20727Y43878D01*
X-20691Y44250D01*
X-20727Y44622D01*
X-20836Y44981D01*
X-21013Y45311D01*
X-21250Y45600D01*
X-21539Y45837D01*
X-21869Y46014D01*
X-22228Y46123D01*
X-22600Y46159D01*
D02*
G37*
G36*
X83580Y89410D02*
X80593D01*
X80393Y89370D01*
X80223Y89257D01*
X80110Y89087D01*
X80070Y88888D01*
Y88650D01*
X83580D01*
Y89410D01*
D02*
G37*
G36*
Y87250D02*
X80070D01*
Y87013D01*
X80110Y86813D01*
X80223Y86643D01*
X80393Y86530D01*
X80593Y86490D01*
X83580D01*
Y87250D01*
D02*
G37*
G36*
X-14612Y88610D02*
X-17600D01*
Y87850D01*
X-14090D01*
Y88088D01*
X-14130Y88287D01*
X-14243Y88457D01*
X-14413Y88570D01*
X-14612Y88610D01*
D02*
G37*
G36*
X-14090Y86450D02*
X-17600D01*
Y85690D01*
X-14612D01*
X-14413Y85730D01*
X-14243Y85843D01*
X-14130Y86013D01*
X-14090Y86213D01*
Y86450D01*
D02*
G37*
G36*
X90180Y32033D02*
Y31625D01*
X90311D01*
Y31799D01*
X90289Y31909D01*
X90227Y32002D01*
X90180Y32033D01*
D02*
G37*
G36*
X4705D02*
Y31625D01*
X4836D01*
Y31799D01*
X4814Y31909D01*
X4752Y32002D01*
X4705Y32033D01*
D02*
G37*
G36*
X-18695D02*
Y31625D01*
X-18564D01*
Y31799D01*
X-18586Y31909D01*
X-18648Y32002D01*
X-18695Y32033D01*
D02*
G37*
G36*
X66805Y32008D02*
Y31600D01*
X66936D01*
Y31774D01*
X66914Y31883D01*
X66852Y31977D01*
X66805Y32008D01*
D02*
G37*
G36*
X71155Y22525D02*
X70467D01*
Y21735D01*
X70499Y21571D01*
X70592Y21432D01*
X70731Y21339D01*
X70895Y21307D01*
X71155D01*
Y22525D01*
D02*
G37*
G36*
X75233Y22425D02*
X74645D01*
Y21307D01*
X74805D01*
X74969Y21339D01*
X75108Y21432D01*
X75201Y21571D01*
X75233Y21735D01*
Y22425D01*
D02*
G37*
G36*
X-3917Y22400D02*
X-4505D01*
Y21282D01*
X-4345D01*
X-4181Y21314D01*
X-4042Y21407D01*
X-3949Y21546D01*
X-3917Y21710D01*
Y22400D01*
D02*
G37*
G36*
X-7995Y24518D02*
X-8255D01*
X-8419Y24486D01*
X-8558Y24393D01*
X-8651Y24254D01*
X-8683Y24090D01*
Y23300D01*
X-7995D01*
Y24518D01*
D02*
G37*
G36*
X-10645Y24493D02*
X-10905D01*
Y23275D01*
X-10217D01*
Y24065D01*
X-10249Y24229D01*
X-10342Y24368D01*
X-10481Y24461D01*
X-10645Y24493D01*
D02*
G37*
G36*
X-7995Y22500D02*
X-8683D01*
Y21710D01*
X-8651Y21546D01*
X-8558Y21407D01*
X-8419Y21314D01*
X-8255Y21282D01*
X-7995D01*
Y22500D01*
D02*
G37*
G36*
X-10217Y22475D02*
X-10905D01*
Y21257D01*
X-10645D01*
X-10481Y21289D01*
X-10342Y21382D01*
X-10249Y21521D01*
X-10217Y21685D01*
Y22475D01*
D02*
G37*
G36*
X-14395Y22375D02*
X-14983D01*
Y21685D01*
X-14951Y21521D01*
X-14858Y21382D01*
X-14719Y21289D01*
X-14555Y21257D01*
X-14395D01*
Y22375D01*
D02*
G37*
%LPD*%
D13*
X62300Y28330D02*
G03*
X62595Y29042I-712J712D01*
G01*
X-19700Y28775D02*
G03*
X-20300Y29375I-600J0D01*
G01*
X-21635Y30110D02*
G03*
X-20900Y29375I735J0D01*
G01*
X-20365Y30390D02*
G03*
X-19950Y29975I415J0D01*
G01*
X-5697Y14400D02*
G03*
X-4166Y15034I0J2166D01*
G01*
D02*
G03*
X-3600Y16400I-1366J1366D01*
G01*
X68056Y14644D02*
G03*
X69852Y13900I1796J1796D01*
G01*
X67600Y15745D02*
G03*
X68056Y14644I1557J0D01*
G01*
X72356Y15644D02*
G03*
X74152Y14900I1796J1796D01*
G01*
X72452Y19300D02*
G03*
X70656Y18556I0J-2540D01*
G01*
X-19700Y21952D02*
G03*
X-18956Y20156I2540J0D01*
G01*
X-13944Y15144D02*
G03*
X-12148Y14400I1796J1796D01*
G01*
X-18000Y29700D02*
G03*
X-18664Y29975I-664J-664D01*
G01*
X-17700Y28976D02*
G03*
X-18000Y29700I-1024J0D01*
G01*
X-17700Y21007D02*
G03*
X-17200Y19800I1707J0D01*
G01*
X-16644Y19244D02*
G03*
X-14848Y18500I1796J1796D01*
G01*
X3200Y30827D02*
G03*
X3035Y31225I-563J0D01*
G01*
X1006Y19006D02*
G03*
X1750Y20802I-1796J1796D01*
G01*
X-1459Y16741D02*
G03*
X-1600Y16400I341J-341D01*
G01*
X2456Y18456D02*
G03*
X3200Y20252I-1796J1796D01*
G01*
X63865Y19187D02*
G03*
X64609Y17391I2540J0D01*
G01*
X66800Y27373D02*
G03*
X66056Y29169I-2540J0D01*
G01*
X65135Y30677D02*
G03*
X65550Y29675I1417J0D01*
G01*
X66800Y20252D02*
G03*
X67544Y18456I2540J0D01*
G01*
X70344Y18244D02*
G03*
X69600Y16448I1796J-1796D01*
G01*
X76448Y13900D02*
G03*
X78244Y14644I0J2540D01*
G01*
X86496Y22896D02*
G03*
X87240Y24692I-1796J1796D01*
G01*
X88510Y32090D02*
G03*
X88100Y32500I-410J0D01*
G01*
X82052D02*
G03*
X80256Y31756I0J-2540D01*
G01*
X79744Y31244D02*
G03*
X79000Y29448I1796J-1796D01*
G01*
X78256Y20056D02*
G03*
X79000Y21852I-1796J1796D01*
G01*
X76448Y19300D02*
G03*
X78244Y20044I0J2540D01*
G01*
X87240Y24692D02*
Y31225D01*
X63865Y28325D02*
Y31200D01*
X62595Y29042D02*
Y31200D01*
X-24785Y29805D02*
X-23930D01*
X-22905Y28275D02*
Y29805D01*
Y31225D01*
Y28275D02*
X-22905Y27120D01*
X-21305Y28275D02*
X-21305Y27120D01*
X-18700Y27260D02*
Y28275D01*
X-19700D02*
Y28775D01*
Y21952D02*
Y28275D01*
X-20900Y29375D02*
X-20300D01*
X-21635Y30110D02*
Y31225D01*
X-20365Y30390D02*
Y31225D01*
X62300Y28330D02*
X62300Y27175D01*
X60700Y28330D02*
X60700Y27175D01*
X60695Y29875D02*
X61550D01*
X64855Y28235D02*
X64855Y27325D01*
X64855Y28235D02*
X64905Y28285D01*
X64865Y28325D02*
X64905Y28285D01*
X65135Y30677D02*
Y31200D01*
X750Y21600D02*
X750Y21600D01*
X750Y21600D02*
X750Y21600D01*
X750Y22750D02*
X750Y21600D01*
X69852Y13900D02*
X76448D01*
X67600Y15745D02*
Y16400D01*
X71600D02*
X72356Y15644D01*
X74152Y14900D02*
X75900D01*
X67800Y21700D02*
Y22855D01*
X70344Y18244D02*
X70656Y18556D01*
X-18956Y20156D02*
X-13944Y15144D01*
X-12148Y14400D02*
X-5697D01*
X-19950Y29975D02*
X-18664D01*
X-17700Y21007D02*
Y28976D01*
X-17200Y19800D02*
X-16644Y19244D01*
X-14848Y18500D02*
X-2900D01*
X100Y26775D02*
X150Y26725D01*
Y25575D02*
Y26725D01*
X1765Y21685D02*
Y31225D01*
X4200Y22750D02*
X4200Y21600D01*
X1750Y20802D02*
Y21600D01*
X-1600Y16400D02*
X1006Y19006D01*
X3200Y20252D02*
Y21600D01*
X400Y16400D02*
X2456Y18456D01*
X3200Y21600D02*
Y30827D01*
X64609Y17391D02*
X65600Y16400D01*
X63865Y19187D02*
Y28325D01*
X65550Y29675D02*
X66056Y29169D01*
X66800Y20252D02*
Y21700D01*
Y27373D01*
X67544Y18456D02*
X69600Y16400D01*
Y16448D01*
X85640Y25625D02*
Y26775D01*
X85590Y26825D02*
X85640Y26775D01*
X78244Y14644D02*
X86496Y22896D01*
X88510Y31225D02*
Y32090D01*
X82052Y32500D02*
X88100D01*
X79744Y31244D02*
X80256Y31756D01*
X79000Y21852D02*
Y29448D01*
X78244Y20044D02*
X78256Y20056D01*
X72452Y19300D02*
X76448D01*
D36*
X19519Y99872D02*
G03*
X19225Y99750I0J-416D01*
G01*
X-17500Y36900D02*
G03*
X-16400Y38000I0J1100D01*
G01*
X-25600D02*
G03*
X-24500Y36900I1100J0D01*
G01*
X-800Y37800D02*
G03*
X100Y36900I900J0D01*
G01*
X-1960Y38955D02*
G03*
X-3300Y38400I0J-1895D01*
G01*
Y40940D02*
G03*
X-2588Y40645I712J712D01*
G01*
X5300Y36900D02*
G03*
X6200Y37800I0J900D01*
G01*
X59900Y37975D02*
G03*
X61000Y36875I1100J0D01*
G01*
X68000D02*
G03*
X69100Y37975I0J1100D01*
G01*
X58500Y40600D02*
G03*
X58633Y40545I133J133D01*
G01*
X82140Y40940D02*
G03*
X82852Y40645I712J712D01*
G01*
X83480Y38955D02*
G03*
X82140Y38400I0J-1895D01*
G01*
X84640Y37800D02*
G03*
X85540Y36900I900J0D01*
G01*
X90775Y36900D02*
G03*
X91675Y37800I0J900D01*
G01*
X19519Y99872D02*
X21924D01*
X73439Y28219D02*
X73460Y28240D01*
X21924Y99872D02*
X24724D01*
X26637D01*
X44124Y99872D02*
X46037D01*
X38919D02*
X41324D01*
X44124D01*
X-26495Y40570D02*
X-24630D01*
X-23675Y41525D01*
X-26625Y40700D02*
X-26495Y40570D01*
X-17275Y40650D02*
X-15350D01*
X-17800Y41175D02*
X-17275Y40650D01*
X-16400Y38000D02*
Y38955D01*
X-18900Y36900D02*
X-17500D01*
X-24500D02*
X-23100D01*
X-25600Y38000D02*
Y38955D01*
X100Y36900D02*
X300D01*
X-1960Y38955D02*
X-800D01*
Y37800D02*
Y38955D01*
X-2588Y40645D02*
X-800D01*
X6200Y37800D02*
Y38955D01*
X4500Y36900D02*
X5300D01*
X59900Y37975D02*
Y38930D01*
X61000Y36875D02*
X62400D01*
X66600D02*
X68000D01*
X69100Y37975D02*
Y38930D01*
X59900Y40545D02*
X60945D01*
X62100Y41700D01*
X58633Y40545D02*
X59900D01*
X69100D02*
X71345D01*
X68055D02*
X69100D01*
X67000Y41600D02*
X68055Y40545D01*
X82852Y40645D02*
X84640D01*
X84640Y37800D02*
Y38955D01*
X83480D02*
X84640D01*
X85540Y36900D02*
X85740D01*
X89975Y36900D02*
X90775D01*
X91675Y37800D02*
Y38955D01*
D37*
X89319Y47469D02*
G03*
X88575Y45673I1796J-1796D01*
G01*
X-19621Y38754D02*
G03*
X-20365Y36958I1796J-1796D01*
G01*
X-21635Y36983D02*
G03*
X-22379Y38779I-2540J0D01*
G01*
X1765Y37637D02*
G03*
X1275Y38820I-1673J0D01*
G01*
X3150D02*
G03*
X3035Y38542I278J-278D01*
G01*
X-3095Y28325D02*
G03*
X-3300Y28240I0J-290D01*
G01*
X63865Y36933D02*
G03*
X63121Y38729I-2540J0D01*
G01*
X65879Y38754D02*
G03*
X65135Y36958I1796J-1796D01*
G01*
X87240Y37521D02*
G03*
X86700Y38825I-1844J0D01*
G01*
X88575D02*
G03*
X88510Y38668I157J-157D01*
G01*
X82466Y28375D02*
G03*
X82140Y28240I0J-461D01*
G01*
X1275Y41023D02*
G03*
X531Y42819I-2540J0D01*
G01*
X89319Y47469D02*
X89500Y47650D01*
X88575Y40425D02*
Y45673D01*
X-22100Y73000D02*
X-19600D01*
X-7275Y50625D02*
X531Y42819D01*
X89780Y36925D02*
Y37288D01*
X86700Y40425D02*
X88575D01*
X21924Y96872D02*
X22000Y96796D01*
Y95300D02*
Y96796D01*
X24724Y95376D02*
Y96872D01*
X41324Y95376D02*
Y96872D01*
X44124Y95376D02*
Y96872D01*
X-22425Y40425D02*
X-21000D01*
X-19550D01*
X-20365Y36925D02*
Y36958D01*
X-19621Y38754D02*
X-19550Y38825D01*
X-21635Y36925D02*
Y36983D01*
X-22425Y38825D02*
X-22379Y38779D01*
X-16400Y38955D02*
X-14809D01*
X-17991D02*
X-16400D01*
X-27191Y38880D02*
X-25600D01*
X-24009D01*
X4609Y38955D02*
X6200D01*
X7691D01*
X6200Y40645D02*
X6200Y42236D01*
X1765Y36925D02*
Y37637D01*
X3035Y36925D02*
Y38542D01*
X-3095Y28325D02*
X150D01*
X59900Y38855D02*
X61491D01*
X64475Y40400D02*
X65925D01*
X63050D02*
X64475D01*
X67509Y38930D02*
X69100D01*
X70691D01*
X63865Y36900D02*
Y36933D01*
X63050Y38800D02*
X63121Y38729D01*
X65135Y36900D02*
Y36958D01*
X65879Y38754D02*
X65925Y38800D01*
X90084Y38955D02*
X91675D01*
X91695Y38975D01*
X93300D01*
X91700Y40645D02*
X91700Y42236D01*
X87240Y36925D02*
Y37521D01*
X88510Y36925D02*
Y38668D01*
X82466Y28375D02*
X85640D01*
X58400Y38855D02*
X59900D01*
X1275Y40420D02*
Y40425D01*
Y41023D01*
Y40425D02*
X3150D01*
D38*
X-19800Y67400D02*
G03*
X-19600Y67600I0J200D01*
G01*
Y71400D01*
D39*
X74145Y26586D02*
G03*
X73460Y28240I-2339J0D01*
G01*
X-13151Y27129D02*
G03*
X-13895Y25333I1796J-1796D01*
G01*
X-4261Y27279D02*
G03*
X-5005Y25483I1796J-1796D01*
G01*
X74145Y22925D02*
Y26586D01*
X-13895Y22900D02*
Y25333D01*
X-13151Y27129D02*
X-12040Y28240D01*
X-5005Y22900D02*
Y25483D01*
X-4261Y27279D02*
X-3300Y28240D01*
D40*
X150Y28325D02*
G03*
X495Y29158I-833J833D01*
G01*
X-3069Y30549D02*
G03*
X-1273Y29805I1796J1796D01*
G01*
X85970Y29891D02*
G03*
X85985Y29855I51J0D01*
G01*
X85640Y28375D02*
G03*
X85985Y29208I-833J833D01*
G01*
X82321Y30599D02*
G03*
X84117Y29855I1796J1796D01*
G01*
X495Y29805D02*
Y31225D01*
Y29158D02*
Y29805D01*
X-1273Y29805D02*
X-530D01*
X-3300Y30780D02*
X-3069Y30549D01*
X85985Y29208D02*
Y29855D01*
X85970Y29891D02*
Y31225D01*
X84117Y29855D02*
X84960D01*
X82140Y30780D02*
X82321Y30599D01*
D41*
X84625Y38955D02*
D03*
Y40645D02*
D03*
X91700Y40645D02*
D03*
X91700Y38955D02*
D03*
X6200Y40645D02*
D03*
X6200Y38955D02*
D03*
X-800Y38955D02*
D03*
X-800Y40645D02*
D03*
X-16400Y38955D02*
D03*
Y40645D02*
D03*
X-25600Y40570D02*
D03*
Y38880D02*
D03*
X69100Y38855D02*
D03*
Y40545D02*
D03*
X59900D02*
D03*
Y38855D02*
D03*
D42*
X-4240Y87150D02*
D03*
X-18300Y87150D02*
D03*
X70220Y87950D02*
D03*
X84280Y87950D02*
D03*
D43*
X3200Y21600D02*
D03*
X4200D02*
D03*
X63865Y28325D02*
D03*
X64865D02*
D03*
X1750Y21600D02*
D03*
X750Y21600D02*
D03*
X-19700Y28275D02*
D03*
X-18700D02*
D03*
X66800Y21700D02*
D03*
X67800D02*
D03*
D44*
X62300Y28325D02*
D03*
X60700Y28325D02*
D03*
X-22905Y28275D02*
D03*
X-21305Y28275D02*
D03*
D45*
X61570Y29855D02*
D03*
X62595Y29855D02*
D03*
X84960Y29855D02*
D03*
X85985Y29855D02*
D03*
X-530Y29805D02*
D03*
X495Y29805D02*
D03*
X-23930Y29805D02*
D03*
X-22905Y29805D02*
D03*
D46*
X65925Y38800D02*
D03*
Y40400D02*
D03*
X63050Y38800D02*
D03*
Y40400D02*
D03*
X86700Y38825D02*
D03*
Y40425D02*
D03*
X3150Y38820D02*
D03*
Y40420D02*
D03*
X1275Y38820D02*
D03*
Y40420D02*
D03*
X-22425Y38825D02*
D03*
Y40425D02*
D03*
X-19550Y38825D02*
D03*
Y40425D02*
D03*
X88575Y38825D02*
D03*
Y40425D02*
D03*
X-19600Y71400D02*
D03*
Y73000D02*
D03*
D47*
X66405Y36900D02*
D03*
X65135D02*
D03*
X62595D02*
D03*
X66405Y31200D02*
D03*
X65135D02*
D03*
X63865D02*
D03*
X62595D02*
D03*
X63865Y36900D02*
D03*
X89780Y36925D02*
D03*
X88510D02*
D03*
X85970D02*
D03*
X89780Y31225D02*
D03*
X88510D02*
D03*
X87240D02*
D03*
X85970D02*
D03*
X87240Y36925D02*
D03*
X4305Y36925D02*
D03*
X3035D02*
D03*
X495D02*
D03*
X4305Y31225D02*
D03*
X3035D02*
D03*
X1765D02*
D03*
X495D02*
D03*
X1765Y36925D02*
D03*
X-19095D02*
D03*
X-20365D02*
D03*
X-22905D02*
D03*
X-19095Y31225D02*
D03*
X-20365D02*
D03*
X-21635D02*
D03*
X-22905D02*
D03*
X-21635Y36925D02*
D03*
D48*
X75900Y13900D02*
D03*
X75900Y14900D02*
D03*
D49*
X85640Y28375D02*
D03*
X85640Y26775D02*
D03*
X150Y28325D02*
D03*
X150Y26725D02*
D03*
D50*
X14100Y102920D02*
D03*
Y116980D02*
D03*
X50800Y105620D02*
D03*
X50800Y119680D02*
D03*
D51*
X24724Y96872D02*
D03*
X24724Y99872D02*
D03*
X21924Y96872D02*
D03*
X21924Y99872D02*
D03*
X41324Y96872D02*
D03*
Y99872D02*
D03*
X44124Y96872D02*
D03*
Y99872D02*
D03*
D52*
X-13895Y22875D02*
D03*
X-11305Y22875D02*
D03*
X74145Y22925D02*
D03*
X71555Y22925D02*
D03*
X-7595Y22900D02*
D03*
X-5005Y22900D02*
D03*
D53*
X-22905Y31225D02*
X-22900Y31220D01*
D54*
X31450Y122100D02*
X34450D01*
X-14800Y40940D02*
X-12040D01*
X70700D02*
X73460D01*
D55*
X28000Y111750D02*
D03*
X33000Y111750D02*
D03*
X38000D02*
D03*
X28000Y106750D02*
D03*
X33000Y106750D02*
D03*
X38000Y106750D02*
D03*
D56*
X13163Y90448D02*
D03*
X-4302Y107913D02*
D03*
X70713Y108879D02*
D03*
X54836Y89957D02*
D03*
D57*
X31550Y122100D02*
D03*
X34550D02*
D03*
X31550Y125100D02*
D03*
X34550D02*
D03*
X68175Y60400D02*
D03*
Y57400D02*
D03*
X71175Y60400D02*
D03*
Y57400D02*
D03*
X-5175Y60300D02*
D03*
Y57300D02*
D03*
X-2175Y60300D02*
D03*
Y57300D02*
D03*
X29500Y102200D02*
D03*
X33000D02*
D03*
X36500D02*
D03*
X29500Y99200D02*
D03*
X33000D02*
D03*
X36500D02*
D03*
D58*
X73460Y43480D02*
D03*
Y38400D02*
D03*
Y28240D02*
D03*
Y30780D02*
D03*
Y40940D02*
D03*
X-12040Y43480D02*
D03*
Y38400D02*
D03*
Y28240D02*
D03*
Y30780D02*
D03*
Y40940D02*
D03*
X82140D02*
D03*
Y30780D02*
D03*
Y28240D02*
D03*
Y38400D02*
D03*
Y43480D02*
D03*
X-3300Y40940D02*
D03*
Y30780D02*
D03*
Y28240D02*
D03*
Y38400D02*
D03*
Y43480D02*
D03*
D59*
X0Y0D02*
D03*
X66000D02*
D03*
X57500Y75750D02*
D03*
X91000Y83000D02*
D03*
X-25000D02*
D03*
D60*
X-22600Y62050D02*
D03*
X-22600Y67500D02*
D03*
Y72950D02*
D03*
X-22600Y44250D02*
D03*
X-22600Y49700D02*
D03*
X-22600Y55150D02*
D03*
X89500Y58550D02*
D03*
X89500Y53100D02*
D03*
X89500Y47650D02*
D03*
X89500Y76350D02*
D03*
X89500Y70900D02*
D03*
X89500Y65450D02*
D03*
D61*
X24100Y123825D02*
D03*
X22100D02*
D03*
X20100D02*
D03*
X2400Y16400D02*
D03*
X-5600D02*
D03*
X-3600D02*
D03*
X-1600D02*
D03*
X400D02*
D03*
X71600D02*
D03*
X63600D02*
D03*
X65600D02*
D03*
X67600D02*
D03*
X69600D02*
D03*
D62*
X82921Y47650D02*
D03*
X-13500Y74000D02*
D03*
X-11700D02*
D03*
X26525Y118175D02*
D03*
X-16200Y74000D02*
D03*
X-18000D02*
D03*
X22000Y95300D02*
D03*
X24724Y95376D02*
D03*
X41324Y95376D02*
D03*
X44124D02*
D03*
X-14800Y89850D02*
D03*
X-16100D02*
D03*
X-17400D02*
D03*
X-18700D02*
D03*
X-20000D02*
D03*
X85203Y85350D02*
D03*
X79980Y85350D02*
D03*
X81280Y85350D02*
D03*
X82580Y85350D02*
D03*
X83880Y85350D02*
D03*
X85180Y90650D02*
D03*
X83880D02*
D03*
X82580D02*
D03*
X81280D02*
D03*
X79980D02*
D03*
X12901Y122103D02*
D03*
X14200Y122103D02*
D03*
X15600Y122103D02*
D03*
X16800Y122103D02*
D03*
X16800Y116880D02*
D03*
X16800Y118180D02*
D03*
X16800Y119480D02*
D03*
X16800Y120780D02*
D03*
X11600Y122080D02*
D03*
X11600Y120780D02*
D03*
X11600Y119480D02*
D03*
X11600Y118180D02*
D03*
X11600Y116880D02*
D03*
X48300Y119580D02*
D03*
X48300Y120880D02*
D03*
X48300Y122180D02*
D03*
X48300Y123480D02*
D03*
X48300Y124780D02*
D03*
X53500Y123480D02*
D03*
X53500Y122180D02*
D03*
X53500Y120880D02*
D03*
X53500Y119580D02*
D03*
X53500Y124803D02*
D03*
X52300Y124803D02*
D03*
X50900Y124803D02*
D03*
X49601Y124803D02*
D03*
X-21000Y40425D02*
D03*
X-14809Y38955D02*
D03*
X-17991D02*
D03*
X-27191Y38880D02*
D03*
X-24009D02*
D03*
X4609Y38955D02*
D03*
X7691D02*
D03*
X6200Y42236D02*
D03*
X61491Y38855D02*
D03*
X64475Y40400D02*
D03*
X67509Y38930D02*
D03*
X70691D02*
D03*
X90084Y38955D02*
D03*
X93300Y38975D02*
D03*
X91700Y42236D02*
D03*
X58400Y38855D02*
D03*
X-7275Y50625D02*
D03*
X-19900Y84500D02*
D03*
X-18600D02*
D03*
X-17300D02*
D03*
X-16000D02*
D03*
X-14700D02*
D03*
D63*
X69800Y23500D02*
D03*
Y22600D02*
D03*
Y21700D02*
D03*
Y20800D02*
D03*
X-24785Y29805D02*
D03*
X-22905Y27120D02*
D03*
X-21305Y27120D02*
D03*
X-18700Y27260D02*
D03*
X62300Y27175D02*
D03*
X60700Y27175D02*
D03*
X60695Y29875D02*
D03*
X64855Y27325D02*
D03*
X-9525Y24175D02*
D03*
Y23275D02*
D03*
Y22375D02*
D03*
Y21475D02*
D03*
X-11300Y20700D02*
D03*
X-10400D02*
D03*
X-18000Y31000D02*
D03*
X-17100D02*
D03*
Y31800D02*
D03*
X-18000D02*
D03*
X-17100Y32600D02*
D03*
X-18000D02*
D03*
X-18900D02*
D03*
X4500D02*
D03*
X5400D02*
D03*
X6300D02*
D03*
X5400Y31800D02*
D03*
X6300D02*
D03*
Y31000D02*
D03*
X5400D02*
D03*
X66600Y32575D02*
D03*
X67500D02*
D03*
X68400D02*
D03*
X67500Y31775D02*
D03*
X68400D02*
D03*
Y30975D02*
D03*
X67500D02*
D03*
X-15675Y23275D02*
D03*
Y22375D02*
D03*
Y21475D02*
D03*
X-13600Y20700D02*
D03*
X-14500D02*
D03*
X-4223Y20701D02*
D03*
X-5123D02*
D03*
X-3048Y21476D02*
D03*
Y22376D02*
D03*
Y23276D02*
D03*
X-7800Y20700D02*
D03*
X-8700D02*
D03*
X75850Y20825D02*
D03*
X75850Y21725D02*
D03*
X75850Y22625D02*
D03*
X75850Y23525D02*
D03*
X-2900Y18500D02*
D03*
X750Y22750D02*
D03*
X67800Y22855D02*
D03*
X150Y25575D02*
D03*
X4200Y22750D02*
D03*
X90875Y31000D02*
D03*
X91775D02*
D03*
Y31800D02*
D03*
X90875D02*
D03*
X91775Y32600D02*
D03*
X90875D02*
D03*
X89975D02*
D03*
X85640Y25625D02*
D03*
X82100Y23700D02*
D03*
Y22176D02*
D03*
M02*
