G04*
G04 #@! TF.GenerationSoftware,Altium Limited,Altium Designer,22.7.1 (60)*
G04*
G04 Layer_Color=16711935*
%FSLAX43Y43*%
%MOMM*%
G71*
G04*
G04 #@! TF.SameCoordinates,6C714445-BF0D-44DC-86B3-87104CAD25D8*
G04*
G04*
G04 #@! TF.FilePolarity,Negative*
G04*
G01*
G75*
G04:AMPARAMS|DCode=18|XSize=0.813mm|YSize=0.803mm|CornerRadius=0.177mm|HoleSize=0mm|Usage=FLASHONLY|Rotation=180.000|XOffset=0mm|YOffset=0mm|HoleType=Round|Shape=RoundedRectangle|*
%AMROUNDEDRECTD18*
21,1,0.813,0.450,0,0,180.0*
21,1,0.460,0.803,0,0,180.0*
1,1,0.353,-0.230,0.225*
1,1,0.353,0.230,0.225*
1,1,0.353,0.230,-0.225*
1,1,0.353,-0.230,-0.225*
%
%ADD18ROUNDEDRECTD18*%
G04:AMPARAMS|DCode=20|XSize=0.793mm|YSize=0.803mm|CornerRadius=0.175mm|HoleSize=0mm|Usage=FLASHONLY|Rotation=0.000|XOffset=0mm|YOffset=0mm|HoleType=Round|Shape=RoundedRectangle|*
%AMROUNDEDRECTD20*
21,1,0.793,0.453,0,0,0.0*
21,1,0.443,0.803,0,0,0.0*
1,1,0.351,0.221,-0.226*
1,1,0.351,-0.221,-0.226*
1,1,0.351,-0.221,0.226*
1,1,0.351,0.221,0.226*
%
%ADD20ROUNDEDRECTD20*%
G04:AMPARAMS|DCode=21|XSize=1.123mm|YSize=1.283mm|CornerRadius=0.217mm|HoleSize=0mm|Usage=FLASHONLY|Rotation=90.000|XOffset=0mm|YOffset=0mm|HoleType=Round|Shape=RoundedRectangle|*
%AMROUNDEDRECTD21*
21,1,1.123,0.850,0,0,90.0*
21,1,0.690,1.283,0,0,90.0*
1,1,0.433,0.425,0.345*
1,1,0.433,0.425,-0.345*
1,1,0.433,-0.425,-0.345*
1,1,0.433,-0.425,0.345*
%
%ADD21ROUNDEDRECTD21*%
G04:AMPARAMS|DCode=23|XSize=0.813mm|YSize=0.803mm|CornerRadius=0.177mm|HoleSize=0mm|Usage=FLASHONLY|Rotation=270.000|XOffset=0mm|YOffset=0mm|HoleType=Round|Shape=RoundedRectangle|*
%AMROUNDEDRECTD23*
21,1,0.813,0.450,0,0,270.0*
21,1,0.460,0.803,0,0,270.0*
1,1,0.353,-0.225,-0.230*
1,1,0.353,-0.225,0.230*
1,1,0.353,0.225,0.230*
1,1,0.353,0.225,-0.230*
%
%ADD23ROUNDEDRECTD23*%
G04:AMPARAMS|DCode=24|XSize=1.143mm|YSize=1.233mm|CornerRadius=0.219mm|HoleSize=0mm|Usage=FLASHONLY|Rotation=90.000|XOffset=0mm|YOffset=0mm|HoleType=Round|Shape=RoundedRectangle|*
%AMROUNDEDRECTD24*
21,1,1.143,0.795,0,0,90.0*
21,1,0.705,1.233,0,0,90.0*
1,1,0.438,0.398,0.353*
1,1,0.438,0.398,-0.353*
1,1,0.438,-0.398,-0.353*
1,1,0.438,-0.398,0.353*
%
%ADD24ROUNDEDRECTD24*%
G04:AMPARAMS|DCode=27|XSize=1.963mm|YSize=3.023mm|CornerRadius=0.322mm|HoleSize=0mm|Usage=FLASHONLY|Rotation=180.000|XOffset=0mm|YOffset=0mm|HoleType=Round|Shape=RoundedRectangle|*
%AMROUNDEDRECTD27*
21,1,1.963,2.380,0,0,180.0*
21,1,1.320,3.023,0,0,180.0*
1,1,0.643,-0.660,1.190*
1,1,0.643,0.660,1.190*
1,1,0.643,0.660,-1.190*
1,1,0.643,-0.660,-1.190*
%
%ADD27ROUNDEDRECTD27*%
%ADD28C,0.203*%
%ADD29C,3.003*%
%ADD30C,12.203*%
%ADD31C,2.803*%
%ADD32C,2.303*%
%ADD33C,3.703*%
%ADD34C,3.203*%
%ADD35C,2.003*%
G04:AMPARAMS|DCode=72|XSize=1.123mm|YSize=1.283mm|CornerRadius=0.217mm|HoleSize=0mm|Usage=FLASHONLY|Rotation=0.000|XOffset=0mm|YOffset=0mm|HoleType=Round|Shape=RoundedRectangle|*
%AMROUNDEDRECTD72*
21,1,1.123,0.850,0,0,0.0*
21,1,0.690,1.283,0,0,0.0*
1,1,0.433,0.345,-0.425*
1,1,0.433,-0.345,-0.425*
1,1,0.433,-0.345,0.425*
1,1,0.433,0.345,0.425*
%
%ADD72ROUNDEDRECTD72*%
G04:AMPARAMS|DCode=73|XSize=1.503mm|YSize=3.673mm|CornerRadius=0.264mm|HoleSize=0mm|Usage=FLASHONLY|Rotation=0.000|XOffset=0mm|YOffset=0mm|HoleType=Round|Shape=RoundedRectangle|*
%AMROUNDEDRECTD73*
21,1,1.503,3.145,0,0,0.0*
21,1,0.975,3.673,0,0,0.0*
1,1,0.528,0.488,-1.573*
1,1,0.528,-0.488,-1.573*
1,1,0.528,-0.488,1.573*
1,1,0.528,0.488,1.573*
%
%ADD73ROUNDEDRECTD73*%
G04:AMPARAMS|DCode=74|XSize=1.503mm|YSize=3.673mm|CornerRadius=0.264mm|HoleSize=0mm|Usage=FLASHONLY|Rotation=90.000|XOffset=0mm|YOffset=0mm|HoleType=Round|Shape=RoundedRectangle|*
%AMROUNDEDRECTD74*
21,1,1.503,3.145,0,0,90.0*
21,1,0.975,3.673,0,0,90.0*
1,1,0.528,1.573,0.488*
1,1,0.528,1.573,-0.488*
1,1,0.528,-1.573,-0.488*
1,1,0.528,-1.573,0.488*
%
%ADD74ROUNDEDRECTD74*%
G04:AMPARAMS|DCode=75|XSize=1.653mm|YSize=3.633mm|CornerRadius=0.283mm|HoleSize=0mm|Usage=FLASHONLY|Rotation=180.000|XOffset=0mm|YOffset=0mm|HoleType=Round|Shape=RoundedRectangle|*
%AMROUNDEDRECTD75*
21,1,1.653,3.068,0,0,180.0*
21,1,1.087,3.633,0,0,180.0*
1,1,0.566,-0.544,1.534*
1,1,0.566,0.544,1.534*
1,1,0.566,0.544,-1.534*
1,1,0.566,-0.544,-1.534*
%
%ADD75ROUNDEDRECTD75*%
G04:AMPARAMS|DCode=76|XSize=0.813mm|YSize=1.463mm|CornerRadius=0.178mm|HoleSize=0mm|Usage=FLASHONLY|Rotation=0.000|XOffset=0mm|YOffset=0mm|HoleType=Round|Shape=RoundedRectangle|*
%AMROUNDEDRECTD76*
21,1,0.813,1.108,0,0,0.0*
21,1,0.458,1.463,0,0,0.0*
1,1,0.356,0.229,-0.554*
1,1,0.356,-0.229,-0.554*
1,1,0.356,-0.229,0.554*
1,1,0.356,0.229,0.554*
%
%ADD76ROUNDEDRECTD76*%
G04:AMPARAMS|DCode=77|XSize=0.793mm|YSize=0.803mm|CornerRadius=0.175mm|HoleSize=0mm|Usage=FLASHONLY|Rotation=270.000|XOffset=0mm|YOffset=0mm|HoleType=Round|Shape=RoundedRectangle|*
%AMROUNDEDRECTD77*
21,1,0.793,0.453,0,0,270.0*
21,1,0.443,0.803,0,0,270.0*
1,1,0.351,-0.226,-0.221*
1,1,0.351,-0.226,0.221*
1,1,0.351,0.226,0.221*
1,1,0.351,0.226,-0.221*
%
%ADD77ROUNDEDRECTD77*%
G04:AMPARAMS|DCode=78|XSize=1.483mm|YSize=2.073mm|CornerRadius=0.262mm|HoleSize=0mm|Usage=FLASHONLY|Rotation=0.000|XOffset=0mm|YOffset=0mm|HoleType=Round|Shape=RoundedRectangle|*
%AMROUNDEDRECTD78*
21,1,1.483,1.550,0,0,0.0*
21,1,0.960,2.073,0,0,0.0*
1,1,0.523,0.480,-0.775*
1,1,0.523,-0.480,-0.775*
1,1,0.523,-0.480,0.775*
1,1,0.523,0.480,0.775*
%
%ADD78ROUNDEDRECTD78*%
D18*
X21075Y120925D02*
D03*
X22075Y120925D02*
D03*
X23875Y114175D02*
D03*
X22875Y114175D02*
D03*
X21450Y114175D02*
D03*
X20450Y114175D02*
D03*
D20*
X23675Y122255D02*
D03*
X22650Y122255D02*
D03*
X23875Y115530D02*
D03*
X22850Y115530D02*
D03*
X20475Y115550D02*
D03*
X21500Y115550D02*
D03*
D21*
X93600Y67050D02*
D03*
X93600Y65450D02*
D03*
X-19100Y53550D02*
D03*
Y55150D02*
D03*
D23*
X21400Y111725D02*
D03*
X21400Y112725D02*
D03*
X23850Y111725D02*
D03*
X23850Y112725D02*
D03*
D24*
X26525Y119550D02*
D03*
X26525Y121150D02*
D03*
D27*
X80295Y23000D02*
D03*
X77705Y23000D02*
D03*
D28*
X21000Y86500D02*
D03*
X28550Y126040D02*
D03*
X37550D02*
D03*
X8500Y75750D02*
D03*
X67235Y63400D02*
D03*
Y54400D02*
D03*
X-1235Y63300D02*
D03*
Y54300D02*
D03*
X33000Y91290D02*
D03*
X26100Y125725D02*
D03*
X4400Y18300D02*
D03*
X73600D02*
D03*
D29*
X28000Y111750D02*
D03*
X33000Y111750D02*
D03*
X38000D02*
D03*
X28000Y106750D02*
D03*
X33000Y106750D02*
D03*
X38000Y106750D02*
D03*
D30*
X13163Y90448D02*
D03*
X-4302Y107913D02*
D03*
X70713Y108879D02*
D03*
X54836Y89957D02*
D03*
D31*
X31550Y122100D02*
D03*
X34550D02*
D03*
X31550Y125100D02*
D03*
X34550D02*
D03*
X68175Y60400D02*
D03*
Y57400D02*
D03*
X71175Y60400D02*
D03*
Y57400D02*
D03*
X-5175Y60300D02*
D03*
Y57300D02*
D03*
X-2175Y60300D02*
D03*
Y57300D02*
D03*
X29500Y102200D02*
D03*
X33000D02*
D03*
X36500D02*
D03*
X29500Y99200D02*
D03*
X33000D02*
D03*
X36500D02*
D03*
D32*
X73460Y43480D02*
D03*
Y38400D02*
D03*
Y28240D02*
D03*
Y30780D02*
D03*
Y40940D02*
D03*
X-12040Y43480D02*
D03*
Y38400D02*
D03*
Y28240D02*
D03*
Y30780D02*
D03*
Y40940D02*
D03*
X82140D02*
D03*
Y30780D02*
D03*
Y28240D02*
D03*
Y38400D02*
D03*
Y43480D02*
D03*
X-3300Y40940D02*
D03*
Y30780D02*
D03*
Y28240D02*
D03*
Y38400D02*
D03*
Y43480D02*
D03*
D33*
X0Y0D02*
D03*
X66000D02*
D03*
X57500Y75750D02*
D03*
X91000Y83000D02*
D03*
X-25000D02*
D03*
D34*
X-22600Y62050D02*
D03*
X-22600Y67500D02*
D03*
Y72950D02*
D03*
X-22600Y44250D02*
D03*
X-22600Y49700D02*
D03*
X-22600Y55150D02*
D03*
X89500Y58550D02*
D03*
X89500Y53100D02*
D03*
X89500Y47650D02*
D03*
X89500Y76350D02*
D03*
X89500Y70900D02*
D03*
X89500Y65450D02*
D03*
D35*
X24100Y123825D02*
D03*
X22100D02*
D03*
X20100D02*
D03*
X2400Y16400D02*
D03*
X-5600D02*
D03*
X-3600D02*
D03*
X-1600D02*
D03*
X400D02*
D03*
X71600D02*
D03*
X63600D02*
D03*
X65600D02*
D03*
X67600D02*
D03*
X69600D02*
D03*
D72*
X84600Y47650D02*
D03*
X86200Y47650D02*
D03*
D73*
X80950Y55963D02*
D03*
X76650Y55963D02*
D03*
X80950Y60163D02*
D03*
X76650Y60163D02*
D03*
D74*
X-12700Y68250D02*
D03*
X-12700Y72550D02*
D03*
X-17200Y68250D02*
D03*
X-17200Y72550D02*
D03*
D75*
X18885Y101700D02*
D03*
X25115Y101700D02*
D03*
X25115Y106100D02*
D03*
X18885Y106100D02*
D03*
D76*
X23550Y116975D02*
D03*
X22600Y116975D02*
D03*
X21650Y116975D02*
D03*
X21650Y119425D02*
D03*
X23550Y119425D02*
D03*
D77*
X24970Y120675D02*
D03*
X24970Y119650D02*
D03*
D78*
X20997Y109674D02*
D03*
X23997Y109674D02*
D03*
M02*
