M48
;Layer_Color=9474304
;FILE_FORMAT=4:3
METRIC,LZ
;TYPE=PLATED
T1F00S00C0.300
T2F00S00C0.500
T3F00S00C1.000
T4F00S00C1.100
T5F00S00C1.200
T6F00S00C1.200
T7F00S00C1.300
T8F00S00C1.640
T9F00S00C3.130
T10F00S00C3.500
T11F00S00C6.000
;TYPE=NON_PLATED
T12F00S00C2.500
T13F00S00C3.500
%
T01
X008564Y0025625
X0090875Y0031
Y00318
Y00326
X0091775
Y00318
Y0031
X0089975Y00326
X00821Y00237
Y0022176
X007585Y0022625
X007585Y0021725
X007585Y0020825
X007585Y0023525
X00698Y00235
Y00226
Y00217
Y00208
X00678Y0022855
X0064855Y0027325
X00623Y0027175
X00607Y0027175
X0060695Y0029875
X00675Y0030975
Y0031775
Y0032575
X00666
X00684
Y0031775
Y0030975
X00063Y0031
Y00318
Y00326
X00054
Y00318
Y0031
X00045Y00326
X00042Y002275
X000075
X000015Y0025575
X-0003048Y0023276
Y0022376
Y0021476
X-0004223Y0020701
X-0005123
X-00078Y00207
X-00087
X-0009525Y0021475
Y0022375
Y0023275
Y0024175
X-00104Y00207
X-00113
X-00136Y00207
X-00145
X-0015675Y0021475
Y0022375
Y0023275
X-00187Y002726
X-0021305Y002712
X-0022905Y002712
X-0024785Y0029805
X-0018Y0031
Y00318
Y00326
X-00171
Y00318
Y0031
X-00189Y00326
X-00029Y00185
T02
X0090084Y0038955
X00933Y0038975
X0070691Y003893
X0067509
X0061491Y0038855
X00584
X0007691Y0038955
X0004609
X-0014809Y0038955
X-0017991
X-0024009Y003888
X-0027191
X-0021Y0040425
X-0007275Y0050625
X-00117Y0074
X-00135
X-00162Y0074
X-0018
X00062Y0042236
X0064475Y00404
X0082921Y004765
X00917Y0042236
X0085203Y008535
X008518Y009065
X008388
X008258
X008128
X007998
X007998Y008535
X008128Y008535
X008258Y008535
X008388Y008535
X0044124Y0095376
X0041324
X0024724Y0095376
X0022Y00953
X00168Y011688
X00168Y011818
X00116Y011818
X00116Y011688
X0026525Y0118175
X-00148Y008985
X-00161
X-00174
X-00187
X-002
X-00199Y00845
X-00186
X-00173
X-0016
X-00147
X00116Y011948
X00116Y012078
X00116Y012208
X0012901Y0122103
X00142Y0122103
X00156Y0122103
X00168Y0122103
X00168Y012078
X00168Y011948
X00483Y011958
X00483Y012088
X00483Y012218
X00483Y012348
X00483Y012478
X0049601Y0124803
X00509Y0124803
X00523Y0124803
X00535Y0124803
X00535Y012348
X00535Y012218
X00535Y012088
X00535Y011958
T03
X00636Y00164
X00656
X00676
X00696
X00716
X00024
X00004
X-00016
X-00036
X-00056
X00201Y0123825
X00221
X00241
T04
X00295Y00992
Y01022
X0033
Y00992
X00365
Y01022
T05
X-0005175Y00573
Y00603
X-0002175
Y00573
X-0001235Y00543
Y00633
X0067235Y00634
X0068175Y00604
Y00574
X0071175
Y00604
X0067235Y00544
X0038Y010675
X0033Y010675
X0033Y011175
X0028Y011175
X0028Y010675
X0038Y011175
X003455Y01221
X003155
Y01251
X003455
X003755Y012604
X002855
T06
X007346Y002824
Y003078
Y00384
X008214
Y003078
Y002824
X-00033
Y003078
Y00384
X-001204
Y003078
Y002824
Y004094
Y004348
X-00033
Y004094
X007346
Y004348
X008214
Y004094
T07
X00736Y00183
X00044
X00261Y0125725
T08
X-00226Y004425
X-00226Y00497
X-00226Y005515
X-00226Y006205
X-00226Y00675
Y007295
X00895Y00709
X00895Y007635
X00895Y006545
X00895Y005855
X00895Y00531
X00895Y004765
T09
X0033Y009129
T10
X-0025Y0083
T11
X0054836Y0089957
X0070713Y0108879
X0013163Y0090448
X-0004302Y0107913
T12
X0021Y00865
T13
X0066Y0
X0
X00085Y007575
X00575
X0091Y0083
M30
